<?xml version="1.0" encoding="utf-8"?>
<!-- Generator: Adobe Illustrator 16.0.0, SVG Export Plug-In . SVG Version: 6.00 Build 0)  -->
<!DOCTYPE svg PUBLIC "-//W3C//DTD SVG 1.1//EN" "http://www.w3.org/Graphics/SVG/1.1/DTD/svg11.dtd">
<svg version="1.1" id="Layer_1" xmlns="http://www.w3.org/2000/svg" xmlns:xlink="http://www.w3.org/1999/xlink" x="0px" y="0px"
	 width="1191px" height="842px" viewBox="0 0 1191 842" enable-background="new 0 0 1191 842" xml:space="preserve">
<polygon fill="#7F421C" stroke="#000000" stroke-width="1.4166" stroke-linecap="round" stroke-linejoin="round" stroke-miterlimit="10" points="
	841.905,270.012 837.936,269.546 795.395,264.549 809.46,349.473 832.116,348.957 836.037,380.312 845.142,380.104 847.065,395.487 
	819.846,412.198 820.269,414.745 833.006,406.924 848.451,406.571 849.825,417.56 823.419,433.771 847.129,576.936 870.502,579.683 
	879.135,574.382 846.855,266.974 "/>
<polygon fill="#791214" stroke="#000000" stroke-width="1.4166" stroke-linecap="round" stroke-linejoin="round" stroke-miterlimit="10" points="
	524.48,532.724 515.848,538.025 492.473,535.28 499.07,474.001 534.739,473.188 "/>
<polygon fill="#6DC171" stroke="#000000" stroke-width="1.4166" stroke-linecap="round" stroke-linejoin="round" stroke-miterlimit="10" points="
	736.137,487.355 734.068,467.663 833.006,406.924 848.451,406.571 849.825,417.56 "/>
<g>
	
		<polygon fill="#E43F97" stroke="#000000" stroke-width="1.4166" stroke-linecap="round" stroke-linejoin="round" stroke-miterlimit="10" points="
		472.651,458.507 491.859,446.715 492.989,455.76 687.785,451.313 690.818,469.625 419.805,475.812 422.473,460.324 424.744,458.93 
		428.141,439.216 448.126,426.947 457.967,458.841 	"/>
	
		<polygon fill="#E43F97" stroke="#000000" stroke-width="1.4166" stroke-linecap="round" stroke-linejoin="round" stroke-miterlimit="10" points="
		836.037,380.312 845.142,380.104 847.065,395.487 733.792,465.027 731.797,446.036 836.236,381.92 	"/>
</g>
<g>
	
		<polygon fill="#86CCA7" stroke="#000000" stroke-width="1.4166" stroke-linecap="round" stroke-linejoin="round" stroke-miterlimit="10" points="
		425.502,296.908 377.791,140.491 491.729,70.543 494.751,69.829 492.467,62.425 478.683,65.684 359.292,138.979 407.885,296.499 
		423.23,298.303 	"/>
	
		<polygon fill="#86CCA7" stroke="#000000" stroke-width="1.4166" stroke-linecap="round" stroke-linejoin="round" stroke-miterlimit="10" points="
		583.007,355.919 492.988,411.185 463.45,418.167 443.122,352.272 442.445,356.207 441.308,356.904 436.009,387.664 
		457.967,458.841 472.651,458.507 491.859,446.715 488.867,422.796 585.364,363.557 	"/>
</g>
<polygon fill="#E8A123" stroke="#000000" stroke-width="1.4166" stroke-linecap="round" stroke-linejoin="round" stroke-miterlimit="10" points="
	841.905,270.012 853.265,263.039 853.265,254.847 570.013,221.576 575.294,238.698 "/>
<g>
	
		<polygon fill="#8A4A9D" stroke="#000000" stroke-width="1.4166" stroke-linecap="round" stroke-linejoin="round" stroke-miterlimit="10" points="
		464.227,317.955 604.84,334.472 606.926,341.234 492.988,411.185 463.45,418.167 443.122,352.272 449.337,316.208 	"/>
	
		<polygon fill="#8A4A9D" stroke="#000000" stroke-width="1.4166" stroke-linecap="round" stroke-linejoin="round" stroke-miterlimit="10" points="
		599.559,317.352 426.063,296.973 377.791,140.491 407.327,133.509 377.791,140.491 491.729,70.543 521.268,63.561 	"/>
</g>
<g>
	
		<polygon fill="#4454A5" stroke="#000000" stroke-width="1.4166" stroke-linecap="round" stroke-linejoin="round" stroke-miterlimit="10" points="
		600.536,354.243 488.867,422.796 492.989,455.76 687.785,451.313 671.443,352.625 	"/>
	
		<polygon fill="#4454A5" stroke="#000000" stroke-width="1.4166" stroke-linecap="round" stroke-linejoin="round" stroke-miterlimit="10" points="
		832.116,348.957 836.236,381.92 731.797,446.036 721.868,351.473 	"/>
</g>
<polyline fill="#45B649" stroke="#000000" stroke-width="1.4166" stroke-linecap="round" stroke-linejoin="round" stroke-miterlimit="10" points="
	727.058,332.328 426.063,296.973 423.23,298.303 407.885,296.499 407.327,296.499 407.354,294.775 403.949,294.375 392.589,301.35 
	392.589,309.542 715.698,347.493 727.058,340.518 "/>
<polygon fill="#FBE800" stroke="#000000" stroke-width="1.4166" stroke-linecap="round" stroke-linejoin="round" stroke-miterlimit="10" points="
	669.699,342.09 715.698,347.493 721.102,344.176 753.381,651.583 744.748,656.883 721.375,654.138 "/>
<polygon fill="#CB2027" stroke="#000000" stroke-width="1.4166" stroke-linecap="round" stroke-linejoin="round" stroke-miterlimit="10" points="
	449.337,316.208 441.771,315.318 399.251,310.323 366.719,612.48 390.094,615.227 398.727,609.926 421.844,475.765 419.805,475.812 
	422.473,460.324 424.744,458.93 436.66,389.777 436.009,387.664 441.308,356.904 442.445,356.207 "/>
<polyline fill="none" points="350.082,666.093 888.345,666.093 888.345,53.215 350.082,53.215 350.082,666.093 "/>
<polyline fill="none" stroke="#000000" stroke-width="1.4166" stroke-linecap="round" stroke-linejoin="round" stroke-miterlimit="10" points="
	526.988,473.363 515.848,538.025 524.48,532.724 534.739,473.188 "/>
<line fill="none" stroke="#000000" stroke-width="1.4166" stroke-linecap="round" stroke-linejoin="round" stroke-miterlimit="10" x1="847.129" y1="576.936" x2="870.502" y2="579.683"/>
<polyline fill="none" stroke="#000000" stroke-width="1.4166" stroke-linecap="round" stroke-linejoin="round" stroke-miterlimit="10" points="
	837.936,269.546 870.502,579.683 879.135,574.382 846.855,266.974 "/>
<line fill="none" stroke="#000000" stroke-width="1.4166" stroke-linecap="round" stroke-linejoin="round" stroke-miterlimit="10" x1="823.419" y1="433.771" x2="847.129" y2="576.936"/>
<line fill="none" stroke="#000000" stroke-width="1.4166" stroke-linecap="round" stroke-linejoin="round" stroke-miterlimit="10" x1="819.846" y1="412.198" x2="820.269" y2="414.745"/>
<polyline fill="none" stroke="#000000" stroke-width="1.4166" stroke-linecap="round" stroke-linejoin="round" stroke-miterlimit="10" points="
	847.065,395.487 845.142,380.104 836.037,380.312 "/>
<line fill="none" stroke="#000000" stroke-width="1.4166" stroke-linecap="round" stroke-linejoin="round" stroke-miterlimit="10" x1="734.969" y1="476.24" x2="848.451" y2="406.571"/>
<polyline fill="none" stroke="#000000" stroke-width="1.4166" stroke-linecap="round" stroke-linejoin="round" stroke-miterlimit="10" points="
	841.905,261.82 841.905,270.012 853.265,263.039 853.265,254.847 "/>
<line fill="none" stroke="#000000" stroke-width="1.4166" stroke-linecap="round" stroke-linejoin="round" stroke-miterlimit="10" x1="841.905" y1="270.012" x2="575.294" y2="238.698"/>
<polyline fill="none" stroke="#000000" stroke-width="1.4166" stroke-linecap="round" stroke-linejoin="round" stroke-miterlimit="10" points="
	570.013,221.576 853.265,254.847 841.905,261.82 572.672,230.198 "/>
<line fill="none" stroke="#000000" stroke-width="1.4166" stroke-linecap="round" stroke-linejoin="round" stroke-miterlimit="10" x1="744.748" y1="656.883" x2="712.217" y2="347.084"/>
<polyline fill="none" stroke="#000000" stroke-width="1.4166" stroke-linecap="round" stroke-linejoin="round" stroke-miterlimit="10" points="
	392.589,309.542 715.698,347.493 715.698,339.301 "/>
<polyline fill="none" stroke="#000000" stroke-width="1.4166" stroke-linecap="round" stroke-linejoin="round" stroke-miterlimit="10" points="
	715.698,347.493 727.058,340.518 727.058,332.328 "/>
<polyline fill="none" stroke="#000000" stroke-width="1.4166" stroke-linecap="round" stroke-linejoin="round" stroke-miterlimit="10" points="
	407.354,294.775 403.949,294.375 392.589,301.35 715.698,339.301 727.058,332.328 425.502,296.908 "/>
<polyline fill="none" stroke="#000000" stroke-width="1.4166" stroke-linecap="round" stroke-linejoin="round" stroke-miterlimit="10" points="
	425.502,296.908 423.23,298.303 407.885,296.499 "/>
<line fill="none" stroke="#000000" stroke-width="1.4166" stroke-linecap="round" stroke-linejoin="round" stroke-miterlimit="10" x1="390.094" y1="615.227" x2="441.771" y2="315.318"/>
<line fill="none" stroke="#000000" stroke-width="1.4166" stroke-linecap="round" stroke-linejoin="round" stroke-miterlimit="10" x1="441.308" y1="356.904" x2="442.445" y2="356.207"/>
<line fill="none" stroke="#000000" stroke-width="1.4166" stroke-linecap="round" stroke-linejoin="round" stroke-miterlimit="10" x1="521.268" y1="63.561" x2="407.327" y2="133.509"/>
<line fill="none" stroke="#000000" stroke-width="1.4166" stroke-linecap="round" stroke-linejoin="round" stroke-miterlimit="10" x1="464.227" y1="317.955" x2="492.988" y2="411.185"/>
<line fill="none" stroke="#000000" stroke-width="1.4166" stroke-linecap="round" stroke-linejoin="round" stroke-miterlimit="10" x1="407.327" y1="133.509" x2="458.946" y2="300.835"/>
<line fill="none" stroke="#000000" stroke-width="1.4166" stroke-linecap="round" stroke-linejoin="round" stroke-miterlimit="10" x1="488.867" y1="422.796" x2="682.331" y2="418.381"/>
<line fill="none" stroke="#000000" stroke-width="1.4166" stroke-linecap="round" stroke-linejoin="round" stroke-miterlimit="10" x1="728.296" y1="412.693" x2="832.116" y2="348.957"/>
<line fill="none" stroke="#000000" stroke-width="1.4166" stroke-linecap="round" stroke-linejoin="round" stroke-miterlimit="10" x1="423.23" y1="298.303" x2="373.075" y2="135.722"/>
<line fill="none" stroke="#000000" stroke-width="1.4166" stroke-linecap="round" stroke-linejoin="round" stroke-miterlimit="10" x1="472.651" y1="458.507" x2="441.308" y2="356.904"/>
<polyline fill="none" stroke="#000000" stroke-width="1.4166" stroke-linecap="round" stroke-linejoin="round" stroke-miterlimit="10" points="
	492.467,62.425 373.075,135.722 359.292,138.979 "/>
<line fill="none" stroke="#000000" stroke-width="1.4166" stroke-linecap="round" stroke-linejoin="round" stroke-miterlimit="10" x1="583.007" y1="355.919" x2="585.364" y2="363.557"/>
<line fill="none" stroke="#000000" stroke-width="1.4166" stroke-linecap="round" stroke-linejoin="round" stroke-miterlimit="10" x1="845.142" y1="380.104" x2="732.159" y2="449.467"/>
<line fill="none" stroke="#000000" stroke-width="1.4166" stroke-linecap="round" stroke-linejoin="round" stroke-miterlimit="10" x1="688.273" y1="454.257" x2="422.473" y2="460.324"/>
<line fill="none" stroke="#000000" stroke-width="1.4166" stroke-linecap="round" stroke-linejoin="round" stroke-miterlimit="10" x1="847.065" y1="395.487" x2="733.792" y2="465.027"/>
<line fill="none" stroke="#000000" stroke-width="1.4166" stroke-linecap="round" stroke-linejoin="round" stroke-miterlimit="10" x1="727.058" y1="340.518" x2="727.058" y2="332.328"/>
</svg>
