<?xml version="1.0" encoding="utf-8"?>
<!-- Generator: Adobe Illustrator 16.0.0, SVG Export Plug-In . SVG Version: 6.00 Build 0)  -->
<!DOCTYPE svg PUBLIC "-//W3C//DTD SVG 1.1//EN" "http://www.w3.org/Graphics/SVG/1.1/DTD/svg11.dtd">
<svg version="1.1" id="Layer_1" xmlns="http://www.w3.org/2000/svg" xmlns:xlink="http://www.w3.org/1999/xlink" x="0px" y="0px"
	 width="1191px" height="842px" viewBox="0 0 1191 842" enable-background="new 0 0 1191 842" xml:space="preserve">
<polyline fill="none" points="412.474,559.196 761.409,559.196 761.409,143.309 412.474,143.309 412.474,559.196 "/>
<line fill="none" stroke="#000000" stroke-width="0.5" stroke-linecap="round" stroke-linejoin="round" stroke-miterlimit="10" x1="578.709" y1="347.063" x2="580.442" y2="346.762"/>
<path fill="none" stroke="#000000" stroke-width="0.5" stroke-linecap="round" stroke-linejoin="round" stroke-miterlimit="10" d="
	M578.709,347.062c-0.326-0.034-0.65-0.023-0.969,0.032"/>
<path fill="#FFF6CC" stroke="#000000" stroke-width="0.5" stroke-linecap="round" stroke-linejoin="round" stroke-miterlimit="10" d="
	M735.736,368.937c-0.002-108.599-70.307-203.914-157.029-212.892c-86.724-8.979-157.025,71.78-157.023,180.379
	c0.001,108.599,70.306,203.914,157.029,212.892C665.437,558.294,735.738,477.535,735.736,368.937"/>
<line fill="none" stroke="#000000" stroke-width="0.5" stroke-linecap="round" stroke-linejoin="round" stroke-miterlimit="10" x1="578.709" y1="347.063" x2="578.709" y2="163.937"/>
<line fill="none" stroke="#000000" stroke-width="0.5" stroke-linecap="round" stroke-linejoin="round" stroke-miterlimit="10" x1="578.709" y1="541.422" x2="578.709" y2="358.434"/>
<path fill="#157139" stroke="#000000" stroke-width="0.5" stroke-linecap="round" stroke-linejoin="round" stroke-miterlimit="10" d="
	M578.707,163.936c25.467,2.637,50.518,13.311,72.816,31.026l0.004,0.001v0.009v330.501c-22.296,13.099-47.347,18.585-72.813,15.948
	h-0.004l1.733-0.301V358.133l0.97-0.168c2.234-0.388,3.739-2.859,3.49-5.734c-0.249-2.875-2.17-5.232-4.46-5.469V164.129"/>
<polyline fill="#FCFAFB" stroke="#000000" stroke-width="0.5" stroke-linecap="round" stroke-linejoin="round" stroke-miterlimit="10" points="
	584.707,270.309 584.708,270.07 584.71,269.827 584.714,269.584 584.721,269.341 584.728,269.098 584.737,268.853 584.748,268.606 
	584.761,268.36 584.775,268.113 584.791,267.865 584.809,267.616 584.827,267.368 584.849,267.118 584.872,266.868 584.896,266.617 
	584.921,266.365 584.948,266.113 584.977,265.859 585.007,265.607 585.04,265.352 585.074,265.098 585.108,264.843 585.146,264.587 
	585.184,264.33 585.223,264.074 585.265,263.816 585.306,263.558 585.351,263.298 585.396,263.041 585.443,262.78 585.491,262.521 
	585.542,262.26 585.594,261.999 585.646,261.738 585.7,261.475 585.756,261.212 585.812,260.949 585.871,260.687 585.931,260.422 
	585.992,260.157 586.118,259.628 586.249,259.097 586.386,258.564 586.528,258.03 586.676,257.495 586.827,256.958 586.983,256.42 
	587.146,255.88 587.313,255.34 587.484,254.8 587.66,254.257 587.84,253.715 588.026,253.171 588.215,252.628 588.407,252.083 
	588.605,251.537 588.807,250.992 589.012,250.444 589.223,249.899 589.437,249.352 589.655,248.805 589.875,248.257 590.1,247.71 
	590.328,247.163 590.56,246.618 590.796,246.07 591.035,245.525 591.276,244.978 591.521,244.433 591.77,243.887 592.022,243.343 
	592.275,242.8 592.533,242.256 592.792,241.714 593.055,241.173 593.319,240.633 593.588,240.093 593.858,239.554 594.131,239.018 
	594.405,238.481 594.682,237.947 594.961,237.414 595.244,236.881 595.526,236.352 596.128,235.238 596.732,234.124 597.343,233.01 
	597.958,231.897 598.268,231.339 598.579,230.783 598.893,230.227 599.205,229.67 599.522,229.116 599.839,228.56 600.158,228.006 
	600.479,227.449 600.801,226.895 601.124,226.341 601.45,225.788 601.777,225.233 602.107,224.681 602.438,224.13 602.77,223.578 
	603.104,223.027 603.441,222.476 603.779,221.927 604.119,221.376 604.462,220.829 604.808,220.28 605.152,219.733 605.502,219.188 
	605.852,218.642 606.204,218.097 606.559,217.553 606.917,217.009 607.275,216.468 607.637,215.926 608,215.386 608.366,214.846 
	608.734,214.308 609.105,213.771 609.479,213.235 609.854,212.7 610.232,212.166 610.614,211.633 610.996,211.102 611.383,210.571 
	611.77,210.042 612.162,209.514 612.555,208.989 612.95,208.463 613.35,207.939 613.751,207.416 614.156,206.895 614.563,206.375 
	614.974,205.856 615.386,205.34 615.802,204.825 616.221,204.312 616.643,203.799 617.067,203.29 617.495,202.78 617.926,202.274 
	618.359,201.769 620.093,201.468 620.4,201.665 619.731,202.721 619.065,203.776 618.404,204.833 617.747,205.891 617.096,206.947 
	616.449,208.006 615.807,209.064 615.168,210.125 614.534,211.185 613.906,212.245 613.281,213.305 612.66,214.367 612.045,215.429 
	611.435,216.491 610.828,217.553 610.226,218.617 609.628,219.681 609.035,220.744 608.447,221.808 607.861,222.874 
	607.282,223.939 606.706,225.005 606.136,226.071 605.568,227.138 605.007,228.204 604.449,229.271 603.895,230.338 
	603.346,231.408 602.802,232.475 602.262,233.544 601.726,234.613 601.194,235.683 600.667,236.752 600.144,237.821 
	599.625,238.892 599.112,239.963 598.601,241.032 598.095,242.103 597.595,243.174 597.098,244.247 596.604,245.318 
	596.117,246.391 595.633,247.462 595.152,248.535 594.677,249.607 594.205,250.68 593.739,251.753 593.276,252.826 592.817,253.898 
	592.362,254.972 591.912,256.046 591.466,257.119 591.024,258.193 590.587,259.266 590.153,260.341 589.725,261.416 589.3,262.488 
	588.879,263.563 588.461,264.637 588.049,265.712 587.641,266.787 587.235,267.861 586.836,268.936 586.44,270.009 584.707,270.309 
	585.103,269.236 585.504,268.162 585.907,267.087 586.316,266.013 586.728,264.938 587.146,263.863 587.567,262.789 
	587.992,261.716 588.42,260.642 588.854,259.567 589.291,258.494 589.734,257.419 590.179,256.347 590.63,255.272 591.084,254.199 
	591.543,253.126 592.006,252.054 592.472,250.981 592.943,249.908 593.42,248.835 593.899,247.762 594.383,246.691 594.871,245.619 
	595.364,244.548 595.861,243.475 596.363,242.404 596.869,241.333 597.379,240.264 597.894,239.192 598.412,238.122 
	598.934,237.052 599.461,235.983 599.992,234.914 600.528,233.845 601.068,232.775 601.614,231.708 602.163,230.639 
	602.716,229.572 603.273,228.504 603.835,227.438 604.402,226.371 604.973,225.306 605.549,224.24 606.129,223.174 606.713,222.109 
	607.302,221.045 607.895,219.981 608.492,218.917 609.095,217.854 609.701,216.792 610.312,215.729 610.927,214.667 
	611.548,213.605 612.173,212.545 612.801,211.485 613.435,210.425 614.073,209.365 614.716,208.307 615.362,207.248 
	616.014,206.191 616.671,205.133 617.332,204.076 617.998,203.021 618.667,201.965 620.4,201.665 "/>
<line fill="#FCFAFB" stroke="#000000" stroke-width="0.5" stroke-linecap="round" stroke-linejoin="round" stroke-miterlimit="10" x1="618.667" y1="201.965" x2="618.359" y2="201.769"/>
<line fill="#FCFAFB" stroke="#000000" stroke-width="0.5" stroke-linecap="round" stroke-linejoin="round" stroke-miterlimit="10" x1="620.4" y1="201.665" x2="620.093" y2="201.468"/>
<polyline fill="#FCFAFB" stroke="#000000" stroke-width="0.5" stroke-linecap="round" stroke-linejoin="round" stroke-miterlimit="10" points="
	632.66,216.351 632.635,216.437 632.61,216.523 632.579,216.612 632.547,216.7 632.513,216.79 632.475,216.88 632.436,216.972 
	632.394,217.065 632.349,217.159 632.302,217.252 632.252,217.348 632.201,217.443 632.147,217.539 632.092,217.636 
	632.034,217.733 631.977,217.832 631.915,217.931 631.853,218.03 631.787,218.131 631.723,218.23 631.656,218.331 631.588,218.432 
	631.445,218.635 631.302,218.838 631.152,219.043 630.999,219.249 630.843,219.454 630.686,219.657 630.525,219.862 
	630.205,220.268 630.045,220.469 629.885,220.669 629.729,220.865 629.571,221.061 629.419,221.252 629.27,221.443 629.123,221.628 
	629.052,221.72 628.981,221.812 628.913,221.902 628.846,221.99 628.779,222.078 628.715,222.165 628.651,222.251 628.591,222.335 
	628.531,222.418 628.474,222.501 628.16,222.953 627.849,223.405 627.539,223.858 627.233,224.312 626.928,224.766 626.623,225.221 
	626.322,225.676 626.021,226.132 625.724,226.589 625.426,227.046 625.131,227.503 624.84,227.96 624.548,228.418 624.256,228.877 
	623.968,229.336 623.682,229.795 623.122,230.697 622.567,231.6 622.017,232.504 621.468,233.407 620.377,235.216 619.286,237.025 
	618.741,237.929 618.193,238.833 617.643,239.736 617.089,240.64 616.53,241.542 615.967,242.443 615.685,242.894 615.398,243.343 
	615.112,243.793 614.824,244.242 614.286,245.077 613.744,245.91 613.2,246.744 612.655,247.575 612.109,248.407 611.561,249.237 
	610.459,250.896 609.354,252.552 608.245,254.207 606.021,257.513 603.796,260.818 602.687,262.472 601.582,264.126 600.48,265.782 
	599.931,266.612 599.384,267.442 598.838,268.271 598.297,269.103 597.755,269.935 597.215,270.768 598.948,270.468 
	599.488,269.634 600.028,268.803 600.572,267.971 601.117,267.141 601.664,266.312 602.213,265.481 603.313,263.826 604.42,262.171 
	605.529,260.517 607.754,257.212 609.979,253.906 611.088,252.251 612.192,250.596 613.294,248.936 613.842,248.106 
	614.389,247.274 614.934,246.443 615.478,245.609 616.018,244.776 616.558,243.941 616.846,243.493 617.132,243.043 
	617.418,242.593 617.7,242.143 618.264,241.241 618.822,240.339 619.376,239.436 619.926,238.532 620.475,237.628 621.02,236.725 
	622.11,234.916 623.201,233.107 623.75,232.203 624.301,231.3 624.855,230.396 625.415,229.494 625.701,229.035 625.989,228.576 
	626.279,228.117 626.571,227.66 626.864,227.203 627.159,226.746 627.457,226.289 627.756,225.831 628.055,225.376 628.356,224.92 
	628.661,224.465 628.965,224.011 629.272,223.558 629.582,223.104 629.894,222.652 630.207,222.201 630.265,222.118 
	630.324,222.035 630.385,221.95 630.448,221.864 630.513,221.777 630.578,221.689 630.646,221.601 630.715,221.511 630.785,221.419 
	630.856,221.328 631.003,221.142 631.152,220.951 631.305,220.761 631.462,220.564 631.618,220.368 631.778,220.168 
	631.938,219.967 632.259,219.562 632.417,219.356 632.576,219.153 632.73,218.948 632.884,218.743 633.033,218.538 633.179,218.334 
	633.319,218.131 633.388,218.03 633.456,217.929 633.521,217.83 633.586,217.729 633.648,217.63 633.708,217.531 633.768,217.433 
	633.825,217.335 633.881,217.238 633.935,217.143 633.985,217.047 634.034,216.952 634.08,216.856 634.126,216.765 634.169,216.671 
	634.208,216.579 634.246,216.489 634.28,216.399 634.312,216.311 634.342,216.223 634.368,216.136 634.392,216.05 632.66,216.351 
	632.479,216.545 632.295,216.738 631.926,217.126 631.552,217.517 631.174,217.911 630.79,218.306 630.405,218.701 630.018,219.101 
	629.627,219.5 629.235,219.904 628.843,220.307 628.053,221.119 627.266,221.936 626.873,222.348 626.481,222.76 626.092,223.173 
	625.707,223.588 625.323,224.002 624.943,224.42 624.567,224.837 624.197,225.255 623.831,225.675 623.651,225.885 623.472,226.096 
	623.293,226.307 623.117,226.517 622.942,226.728 622.768,226.938 622.597,227.149 622.428,227.361 622.26,227.572 622.095,227.782 
	621.931,227.995 621.769,228.206 621.608,228.418 621.45,228.63 621.295,228.843 621.143,229.053 620.991,229.266 620.844,229.478 
	620.264,230.318 619.689,231.163 619.119,232.009 618.552,232.856 617.986,233.708 617.424,234.56 616.302,236.266 615.181,237.974 
	614.619,238.827 614.058,239.681 613.49,240.534 612.924,241.383 612.351,242.231 611.775,243.077 611.639,243.28 611.507,243.484 
	611.377,243.689 611.253,243.896 611.131,244.101 611.014,244.308 610.898,244.517 610.785,244.726 610.675,244.935 
	610.567,245.145 610.463,245.356 610.358,245.566 610.258,245.777 610.157,245.988 609.959,246.413 609.572,247.26 609.377,247.685 
	609.183,248.108 608.983,248.529 608.881,248.74 608.778,248.95 608.672,249.159 608.565,249.37 608.456,249.577 608.343,249.786 
	608.218,250.011 608.091,250.235 607.959,250.459 607.826,250.682 607.69,250.903 607.554,251.125 607.414,251.344 607.273,251.564 
	607.131,251.782 606.987,252 606.695,252.435 606.398,252.867 606.102,253.299 605.502,254.162 605.203,254.595 604.908,255.027 
	604.616,255.463 604.473,255.681 604.328,255.9 604.188,256.12 604.048,256.339 603.911,256.561 603.775,256.782 603.533,257.186 
	603.292,257.594 603.049,258.01 602.806,258.431 602.562,258.857 602.321,259.288 602.08,259.724 601.839,260.163 601.602,260.605 
	601.363,261.052 601.128,261.5 600.894,261.952 600.664,262.404 600.435,262.859 600.21,263.312 599.988,263.768 599.771,264.225 
	599.555,264.679 599.346,265.134 599.139,265.586 598.938,266.038 598.741,266.488 598.646,266.711 598.551,266.934 
	598.457,267.156 598.365,267.377 598.273,267.597 598.185,267.816 598.097,268.036 598.011,268.253 597.926,268.47 597.843,268.686 
	597.762,268.9 597.683,269.112 597.604,269.325 597.528,269.533 597.454,269.742 597.381,269.951 597.311,270.156 597.242,270.361 
	597.175,270.563 597.11,270.765 "/>
<line fill="#FCFAFB" stroke="#000000" stroke-width="0.5" stroke-linecap="round" stroke-linejoin="round" stroke-miterlimit="10" x1="597.11" y1="270.765" x2="597.215" y2="270.768"/>
<polyline fill="#FFFFFF" stroke="#000000" stroke-width="0.5" stroke-linecap="round" stroke-linejoin="round" stroke-miterlimit="10" points="
	586.908,446.893 587.56,447.975 588.215,449.051 588.87,450.122 589.527,451.188 590.188,452.25 590.848,453.307 591.512,454.357 
	592.177,455.405 592.843,456.445 593.51,457.482 594.18,458.514 594.852,459.541 595.524,460.562 596.198,461.579 596.875,462.591 
	597.552,463.597 598.23,464.6 598.91,465.597 599.591,466.589 600.274,467.575 600.959,468.556 601.643,469.533 602.33,470.505 
	603.018,471.472 603.707,472.433 604.398,473.391 605.09,474.343 605.783,475.29 606.476,476.231 607.171,477.167 607.867,478.1 
	608.563,479.026 609.262,479.948 609.963,480.864 610.662,481.776 611.363,482.683 612.064,483.584 612.769,484.48 613.473,485.373 
	614.176,486.259 614.882,487.141 615.589,488.018 616.297,488.889 617.004,489.754 617.711,490.616 618.421,491.474 
	619.132,492.323 619.843,493.171 620.554,494.012 621.265,494.847 621.978,495.678 622.69,496.504 623.403,497.325 624.117,498.141 
	624.832,498.952 625.547,499.759 626.262,500.558 626.978,501.354 627.692,502.146 628.409,502.931 629.125,503.712 
	629.842,504.485 630.56,505.256 631.276,506.021 629.545,506.321 628.826,505.557 628.11,504.786 627.392,504.012 626.676,503.231 
	625.959,502.446 625.244,501.654 624.528,500.858 623.813,500.06 623.099,499.253 622.384,498.441 621.67,497.626 620.957,496.805 
	620.244,495.979 619.531,495.147 618.82,494.312 618.109,493.472 617.398,492.624 616.689,491.774 615.979,490.917 615.271,490.055 
	614.563,489.189 613.855,488.318 613.15,487.441 612.444,486.56 611.739,485.674 611.035,484.781 610.333,483.885 609.631,482.982 
	608.93,482.077 608.229,481.165 607.53,480.249 606.832,479.327 606.134,478.4 605.439,477.468 604.744,476.531 604.05,475.59 
	603.356,474.644 602.665,473.691 601.974,472.733 601.284,471.772 600.597,470.806 599.911,469.834 599.226,468.856 
	598.541,467.875 597.857,466.889 597.177,465.897 596.496,464.9 595.818,463.897 595.142,462.892 594.464,461.88 593.791,460.862 
	593.118,459.842 592.447,458.814 591.777,457.783 591.109,456.746 590.443,455.706 589.779,454.658 589.115,453.606 588.454,452.55 
	587.795,451.488 587.137,450.423 586.481,449.352 585.826,448.275 585.175,447.193 586.908,446.893 "/>
<polyline fill="#FFFFFF" stroke="#000000" stroke-width="0.5" stroke-linecap="round" stroke-linejoin="round" stroke-miterlimit="10" points="
	585.175,447.193 585.169,447.204 585.166,447.215 585.166,447.226 585.166,447.238 585.169,447.253 585.173,447.268 
	585.186,447.298 585.202,447.33 585.223,447.362 585.27,447.433 585.315,447.503 585.336,447.537 585.353,447.569 585.365,447.601 
	585.369,447.614 585.373,447.627 585.373,447.642 585.373,447.652 585.369,447.663 585.364,447.674 585.655,448.324 
	585.949,448.972 586.244,449.616 586.539,450.257 586.838,450.895 587.138,451.529 587.441,452.161 587.743,452.791 
	588.049,453.418 588.355,454.041 588.663,454.66 588.973,455.277 589.284,455.893 589.597,456.505 589.912,457.113 590.227,457.72 
	590.544,458.323 590.863,458.924 591.183,459.521 591.505,460.117 591.827,460.71 592.151,461.3 592.477,461.889 592.803,462.474 
	593.131,463.057 593.46,463.637 593.79,464.214 594.121,464.79 594.452,465.362 594.785,465.934 595.119,466.502 595.456,467.069 
	595.791,467.633 596.129,468.194 596.468,468.752 596.807,469.31 597.146,469.864 597.486,470.417 597.828,470.968 598.172,471.517 
	598.515,472.064 598.86,472.607 599.204,473.151 599.55,473.691 599.896,474.229 600.242,474.768 600.59,475.302 600.939,475.835 
	601.286,476.366 601.636,476.896 601.986,477.423 602.336,477.95 602.687,478.474 603.038,478.996 603.741,480.036 604.447,481.069 
	605.152,482.098 605.86,483.119 606.567,484.135 606.906,484.615 607.244,485.094 607.585,485.571 607.927,486.045 608.271,486.518 
	608.614,486.988 608.962,487.456 609.308,487.92 609.656,488.383 610.006,488.842 610.356,489.299 610.709,489.751 611.062,490.202 
	611.415,490.649 611.77,491.092 612.126,491.533 612.482,491.971 612.841,492.402 613.199,492.831 613.559,493.256 613.919,493.677 
	614.279,494.094 614.641,494.507 615.002,494.915 615.364,495.318 615.728,495.718 616.092,496.112 616.455,496.501 616.82,496.886 
	617.184,497.264 617.55,497.639 617.917,498.008 618.282,498.371 618.647,498.729 619.015,499.08 619.38,499.428 619.747,499.768 
	620.114,500.103 620.479,500.431 620.847,500.752 621.214,501.069 621.58,501.379 621.947,501.682 622.312,501.977 622.68,502.267 
	623.045,502.549 623.41,502.824 623.594,502.959 623.775,503.093 623.957,503.224 624.141,503.354 624.323,503.481 624.505,503.607 
	624.687,503.731 624.868,503.854 625.052,503.975 625.231,504.093 625.414,504.208 625.596,504.323 625.777,504.436 
	625.959,504.547 626.139,504.655 626.32,504.761 626.501,504.865 626.681,504.968 626.862,505.068 627.043,505.168 627.223,505.265 
	627.402,505.358 627.581,505.45 627.761,505.54 627.94,505.629 628.119,505.715 628.297,505.798 628.478,505.881 628.655,505.96 
	628.834,506.035 629.012,506.111 629.188,506.183 629.366,506.255 629.545,506.321 "/>
<polyline fill="#FCFAFB" stroke="#000000" stroke-width="0.5" stroke-linecap="round" stroke-linejoin="round" stroke-miterlimit="10" points="
	626.072,213.201 626.136,213.091 626.202,212.979 626.269,212.866 626.339,212.75 626.411,212.635 626.484,212.52 626.561,212.403 
	626.64,212.284 626.717,212.166 626.798,212.045 626.881,211.924 626.963,211.802 627.135,211.557 627.309,211.309 627.487,211.059 
	627.667,210.805 627.851,210.551 628.036,210.293 628.409,209.779 628.777,209.262 628.96,209.003 629.14,208.746 629.316,208.488 
	629.488,208.232 629.656,207.977 629.737,207.851 629.818,207.725 629.896,207.599 629.973,207.473 630.049,207.349 
	630.122,207.225 630.194,207.101 630.265,206.978 630.331,206.855 630.397,206.735 630.461,206.614 630.521,206.496 
	630.581,206.377 630.637,206.26 630.691,206.143 630.741,206.027 630.79,205.913 630.835,205.799 630.877,205.688 630.916,205.576 
	630.952,205.466 630.986,205.356 "/>
<polyline fill="#FCFAFB" stroke="#000000" stroke-width="0.5" stroke-linecap="round" stroke-linejoin="round" stroke-miterlimit="10" points="
	621.293,222.067 621.455,221.79 621.613,221.513 621.772,221.236 621.927,220.958 622.082,220.682 622.233,220.404 622.535,219.85 
	622.83,219.295 623.124,218.741 623.414,218.187 623.703,217.632 624.279,216.523 624.569,215.969 624.861,215.417 625.156,214.862 
	625.457,214.308 625.608,214.032 625.761,213.755 625.916,213.478 626.072,213.201 "/>
<polyline fill="#FCFAFB" stroke="#000000" stroke-width="0.5" stroke-linecap="round" stroke-linejoin="round" stroke-miterlimit="10" points="
	610.979,238.518 611.336,238.024 611.69,237.527 612.041,237.027 612.389,236.525 612.736,236.019 613.078,235.514 613.418,235.004 
	613.757,234.493 614.094,233.98 614.427,233.465 614.758,232.948 615.087,232.43 615.413,231.912 615.738,231.392 616.061,230.871 
	616.381,230.351 616.7,229.829 617.017,229.307 617.332,228.785 617.645,228.263 617.956,227.743 618.268,227.221 618.575,226.701 
	618.883,226.181 619.189,225.662 619.493,225.144 619.796,224.627 620.099,224.112 620.398,223.598 620.697,223.086 
	620.996,222.575 621.293,222.067 "/>
<polyline fill="#FCFAFB" stroke="#000000" stroke-width="0.5" stroke-linecap="round" stroke-linejoin="round" stroke-miterlimit="10" points="
	599.371,255.321 599.666,254.799 599.962,254.278 600.253,253.758 600.543,253.238 601.123,252.198 601.698,251.157 
	602.274,250.119 602.853,249.082 603.434,248.047 603.728,247.528 604.024,247.012 604.321,246.495 604.622,245.98 604.924,245.464 
	605.23,244.949 605.54,244.436 605.853,243.921 606.17,243.408 606.492,242.895 606.817,242.384 607.149,241.873 607.483,241.362 
	607.824,240.852 607.997,240.597 608.172,240.343 608.346,240.087 608.524,239.833 608.702,239.58 608.883,239.326 609.064,239.072 
	609.248,238.818 609.604,238.325 609.957,237.828 610.308,237.328 610.657,236.826 611.003,236.322 611.345,235.814 
	611.687,235.305 612.023,234.793 612.36,234.28 612.693,233.766 613.024,233.249 613.354,232.73 613.68,232.212 614.005,231.692 
	614.327,231.172 614.647,230.651 614.967,230.13 615.283,229.607 615.599,229.085 615.911,228.563 616.225,228.043 616.534,227.521 
	616.842,227.001 617.149,226.481 617.456,225.962 617.76,225.444 618.062,224.928 618.365,224.413 618.665,223.898 618.964,223.387 
	619.263,222.875 619.56,222.368 619.722,222.091 619.881,221.813 620.039,221.537 620.193,221.259 620.349,220.982 620.501,220.705 
	620.802,220.15 621.099,219.596 621.391,219.042 621.683,218.487 621.971,217.933 622.546,216.824 622.836,216.27 623.128,215.717 
	623.423,215.163 623.724,214.608 623.875,214.333 624.027,214.056 624.183,213.778 624.339,213.501 624.402,213.392 624.469,213.28 
	624.537,213.167 624.607,213.051 624.68,212.936 624.753,212.821 624.828,212.704 624.906,212.585 624.985,212.466 625.064,212.346 
	625.147,212.225 625.23,212.103 625.401,211.858 625.575,211.609 625.754,211.359 625.936,211.105 626.117,210.852 626.303,210.594 
	626.676,210.08 627.044,209.563 627.227,209.304 627.406,209.046 627.583,208.789 627.756,208.533 627.923,208.277 628.004,208.151 
	628.085,208.025 628.164,207.899 628.241,207.773 628.315,207.649 628.389,207.525 628.461,207.401 628.531,207.279 628.6,207.156 
	628.664,207.036 628.728,206.915 628.789,206.796 628.848,206.677 628.904,206.561 628.958,206.443 629.008,206.328 
	629.057,206.213 629.102,206.1 629.145,205.988 629.185,205.876 629.221,205.767 629.253,205.657 630.986,205.356 629.253,205.657 
	629.05,205.85 628.845,206.045 628.638,206.246 628.431,206.451 628.22,206.658 628.009,206.87 627.797,207.086 627.583,207.304 
	627.368,207.527 627.152,207.752 626.935,207.98 626.717,208.211 626.499,208.445 626.279,208.683 626.058,208.922 625.838,209.165 
	625.617,209.41 625.396,209.656 625.174,209.905 624.953,210.157 624.729,210.409 624.508,210.665 624.065,211.179 623.623,211.701 
	623.182,212.227 622.742,212.756 622.307,213.291 621.873,213.825 621.446,214.362 621.023,214.9 620.814,215.168 620.605,215.436 
	620.4,215.705 620.195,215.973 619.994,216.239 619.792,216.505 619.594,216.77 619.398,217.035 619.203,217.297 619.011,217.56 
	618.82,217.821 618.633,218.081 618.447,218.338 618.266,218.595 618.086,218.849 617.907,219.103 617.733,219.353 617.562,219.602 
	617.393,219.848 617.229,220.093 617.065,220.334 616.907,220.573 616.752,220.809 616.599,221.043 616.451,221.273 
	616.306,221.502 615.964,222.041 615.618,222.577 615.272,223.111 614.925,223.644 614.576,224.175 614.225,224.705 
	613.872,225.232 613.52,225.759 612.809,226.809 612.094,227.856 611.377,228.9 610.655,229.94 609.21,232.021 608.486,233.063 
	607.763,234.107 607.039,235.153 606.319,236.203 605.601,237.258 605.243,237.787 604.887,238.318 604.71,238.581 604.537,238.845 
	604.364,239.11 604.195,239.376 604.027,239.641 603.862,239.909 603.696,240.175 603.534,240.443 603.374,240.712 603.214,240.98 
	603.058,241.25 602.901,241.52 602.746,241.79 602.593,242.06 602.291,242.604 601.994,243.147 601.702,243.692 601.414,244.24 
	601.13,244.789 600.849,245.336 600.573,245.887 600.3,246.436 600.028,246.987 599.76,247.538 599.492,248.088 598.963,249.19 
	598.436,250.29 597.908,251.388 597.377,252.48 597.11,253.025 596.841,253.569 596.568,254.111 596.295,254.649 596.018,255.188 
	595.737,255.724 595.59,256.005 595.443,256.285 595.3,256.566 595.157,256.847 595.019,257.126 594.88,257.403 594.743,257.682 
	594.608,257.959 594.475,258.237 594.344,258.514 594.214,258.789 594.086,259.064 593.958,259.34 593.834,259.615 593.71,259.889 
	593.588,260.163 593.467,260.436 593.349,260.71 593.114,261.255 592.884,261.801 592.659,262.342 592.438,262.886 592.222,263.428 
	592.009,263.968 591.8,264.508 591.595,265.048 591.392,265.588 591.192,266.128 590.994,266.668 590.798,267.208 590.605,267.748 
	590.222,268.83 589.842,269.915 589.462,271.006 589.083,272.1 588.892,272.649 588.699,273.202 "/>
<polyline fill="#FCFAFB" stroke="#000000" stroke-width="0.5" stroke-linecap="round" stroke-linejoin="round" stroke-miterlimit="10" points="
	601.104,255.02 601.399,254.498 601.693,253.978 601.986,253.458 602.276,252.938 602.854,251.897 603.43,250.856 604.006,249.818 
	604.584,248.781 605.167,247.746 605.461,247.228 605.756,246.711 606.055,246.194 606.355,245.68 606.657,245.163 606.964,244.648 
	607.273,244.135 607.586,243.621 607.903,243.107 608.226,242.595 608.551,242.083 608.881,241.572 609.217,241.061 
	609.558,240.552 609.73,240.296 609.904,240.042 610.079,239.787 610.256,239.533 610.436,239.279 610.616,239.025 610.798,238.771 
	610.979,238.518 "/>
<polyline fill="#FCFAFB" stroke="#000000" stroke-width="0.5" stroke-linecap="round" stroke-linejoin="round" stroke-miterlimit="10" points="
	601.104,255.02 600.784,255.58 600.462,256.142 599.814,257.261 599.162,258.381 598.506,259.5 597.847,260.62 597.185,261.738 
	595.855,263.973 594.527,266.21 593.867,267.329 593.206,268.448 592.549,269.567 591.897,270.687 591.25,271.809 590.927,272.37 
	590.607,272.93 588.874,273.23 589.194,272.671 589.516,272.109 590.164,270.988 590.817,269.868 591.473,268.749 592.133,267.629 
	592.796,266.511 594.124,264.274 595.451,262.038 596.113,260.92 596.773,259.801 597.429,258.681 598.082,257.562 598.729,256.442 
	599.051,255.88 599.371,255.321 "/>
<line fill="#FCFAFB" stroke="#000000" stroke-width="0.5" stroke-linecap="round" stroke-linejoin="round" stroke-miterlimit="10" x1="588.699" y1="273.202" x2="588.874" y2="273.23"/>
<polyline fill="#FFFFFF" stroke="#000000" stroke-width="0.5" stroke-linecap="round" stroke-linejoin="round" stroke-miterlimit="10" points="
	601.189,416.253 599.456,416.554 600.473,419.335 601.56,422.179 602.626,424.755 603.705,427.289 604.802,429.782 605.91,432.239 
	607.032,434.662 608.166,437.056 609.314,439.421 610.474,441.763 611.644,444.083 612.826,446.385 614.018,448.673 "/>
<polyline fill="#FFFFFF" stroke="#000000" stroke-width="0.5" stroke-linecap="round" stroke-linejoin="round" stroke-miterlimit="10" points="
	601.189,416.253 603.099,418.948 601.365,419.249 599.456,416.554 "/>
<line fill="#FFFFFF" stroke="#000000" stroke-width="0.5" stroke-linecap="round" stroke-linejoin="round" stroke-miterlimit="10" x1="602.291" y1="420.76" x2="601.365" y2="419.249"/>
<line fill="#FFFFFF" stroke="#000000" stroke-width="0.5" stroke-linecap="round" stroke-linejoin="round" stroke-miterlimit="10" x1="604.024" y1="420.46" x2="603.099" y2="418.948"/>
<polyline fill="#FFFFFF" stroke="#000000" stroke-width="0.5" stroke-linecap="round" stroke-linejoin="round" stroke-miterlimit="10" points="
	604.024,420.46 604.604,421.425 602.872,421.725 602.291,420.76 "/>
<polyline fill="#FFFFFF" stroke="#000000" stroke-width="0.5" stroke-linecap="round" stroke-linejoin="round" stroke-miterlimit="10" points="
	604.604,421.425 605.186,422.441 603.452,422.742 602.872,421.725 "/>
<line fill="#FFFFFF" stroke="#000000" stroke-width="0.5" stroke-linecap="round" stroke-linejoin="round" stroke-miterlimit="10" x1="604.035" y1="423.801" x2="603.452" y2="422.742"/>
<line fill="#FFFFFF" stroke="#000000" stroke-width="0.5" stroke-linecap="round" stroke-linejoin="round" stroke-miterlimit="10" x1="605.769" y1="423.5" x2="605.186" y2="422.441"/>
<polyline fill="#FFFFFF" stroke="#000000" stroke-width="0.5" stroke-linecap="round" stroke-linejoin="round" stroke-miterlimit="10" points="
	605.769,423.5 606.35,424.595 604.618,424.895 604.035,423.801 "/>
<line fill="#FFFFFF" stroke="#000000" stroke-width="0.5" stroke-linecap="round" stroke-linejoin="round" stroke-miterlimit="10" x1="605.775" y1="427.15" x2="604.618" y2="424.895"/>
<line fill="#FFFFFF" stroke="#000000" stroke-width="0.5" stroke-linecap="round" stroke-linejoin="round" stroke-miterlimit="10" x1="607.509" y1="426.85" x2="606.35" y2="424.595"/>
<line fill="#FFFFFF" stroke="#000000" stroke-width="0.5" stroke-linecap="round" stroke-linejoin="round" stroke-miterlimit="10" x1="606.922" y1="429.449" x2="605.775" y2="427.15"/>
<line fill="#FFFFFF" stroke="#000000" stroke-width="0.5" stroke-linecap="round" stroke-linejoin="round" stroke-miterlimit="10" x1="608.655" y1="429.148" x2="607.509" y2="426.85"/>
<line fill="#FFFFFF" stroke="#000000" stroke-width="0.5" stroke-linecap="round" stroke-linejoin="round" stroke-miterlimit="10" x1="608.047" y1="431.725" x2="606.922" y2="429.449"/>
<line fill="#FFFFFF" stroke="#000000" stroke-width="0.5" stroke-linecap="round" stroke-linejoin="round" stroke-miterlimit="10" x1="609.779" y1="431.424" x2="608.655" y2="429.148"/>
<polyline fill="#FFFFFF" stroke="#000000" stroke-width="0.5" stroke-linecap="round" stroke-linejoin="round" stroke-miterlimit="10" points="
	609.779,431.424 610.871,433.605 609.14,433.906 608.047,431.725 "/>
<polyline fill="#FFFFFF" stroke="#000000" stroke-width="0.5" stroke-linecap="round" stroke-linejoin="round" stroke-miterlimit="10" points="
	610.871,433.605 611.925,435.632 610.191,435.933 609.14,433.906 "/>
<line fill="#FFFFFF" stroke="#000000" stroke-width="0.5" stroke-linecap="round" stroke-linejoin="round" stroke-miterlimit="10" x1="612.463" y1="440.13" x2="610.191" y2="435.933"/>
<line fill="#FFFFFF" stroke="#000000" stroke-width="0.5" stroke-linecap="round" stroke-linejoin="round" stroke-miterlimit="10" x1="614.196" y1="439.83" x2="611.925" y2="435.632"/>
<line fill="#FFFFFF" stroke="#000000" stroke-width="0.5" stroke-linecap="round" stroke-linejoin="round" stroke-miterlimit="10" x1="614.743" y1="444.234" x2="612.463" y2="440.13"/>
<line fill="#FFFFFF" stroke="#000000" stroke-width="0.5" stroke-linecap="round" stroke-linejoin="round" stroke-miterlimit="10" x1="616.477" y1="443.934" x2="614.196" y2="439.83"/>
<line fill="#FFFFFF" stroke="#000000" stroke-width="0.5" stroke-linecap="round" stroke-linejoin="round" stroke-miterlimit="10" x1="617.045" y1="448.268" x2="614.743" y2="444.234"/>
<line fill="#FFFFFF" stroke="#000000" stroke-width="0.5" stroke-linecap="round" stroke-linejoin="round" stroke-miterlimit="10" x1="618.779" y1="447.968" x2="616.477" y2="443.934"/>
<line fill="#FFFFFF" stroke="#000000" stroke-width="0.5" stroke-linecap="round" stroke-linejoin="round" stroke-miterlimit="10" x1="619.382" y1="452.253" x2="617.045" y2="448.268"/>
<line fill="#FFFFFF" stroke="#000000" stroke-width="0.5" stroke-linecap="round" stroke-linejoin="round" stroke-miterlimit="10" x1="621.115" y1="451.952" x2="618.779" y2="447.968"/>
<line fill="#FFFFFF" stroke="#000000" stroke-width="0.5" stroke-linecap="round" stroke-linejoin="round" stroke-miterlimit="10" x1="620.573" y1="454.276" x2="619.382" y2="452.253"/>
<line fill="#FFFFFF" stroke="#000000" stroke-width="0.5" stroke-linecap="round" stroke-linejoin="round" stroke-miterlimit="10" x1="622.305" y1="453.976" x2="621.115" y2="451.952"/>
<line fill="#FFFFFF" stroke="#000000" stroke-width="0.5" stroke-linecap="round" stroke-linejoin="round" stroke-miterlimit="10" x1="621.76" y1="456.33" x2="620.573" y2="454.276"/>
<line fill="#FFFFFF" stroke="#000000" stroke-width="0.5" stroke-linecap="round" stroke-linejoin="round" stroke-miterlimit="10" x1="623.493" y1="456.029" x2="622.305" y2="453.976"/>
<line fill="#FFFFFF" stroke="#000000" stroke-width="0.5" stroke-linecap="round" stroke-linejoin="round" stroke-miterlimit="10" x1="622.942" y1="458.413" x2="621.76" y2="456.33"/>
<line fill="#FFFFFF" stroke="#000000" stroke-width="0.5" stroke-linecap="round" stroke-linejoin="round" stroke-miterlimit="10" x1="624.676" y1="458.112" x2="623.493" y2="456.029"/>
<line fill="#FFFFFF" stroke="#000000" stroke-width="0.5" stroke-linecap="round" stroke-linejoin="round" stroke-miterlimit="10" x1="624.121" y1="460.521" x2="622.942" y2="458.413"/>
<line fill="#FFFFFF" stroke="#000000" stroke-width="0.5" stroke-linecap="round" stroke-linejoin="round" stroke-miterlimit="10" x1="625.854" y1="460.22" x2="624.676" y2="458.112"/>
<line fill="#FFFFFF" stroke="#000000" stroke-width="0.5" stroke-linecap="round" stroke-linejoin="round" stroke-miterlimit="10" x1="626.465" y1="464.792" x2="624.121" y2="460.521"/>
<line fill="#FFFFFF" stroke="#000000" stroke-width="0.5" stroke-linecap="round" stroke-linejoin="round" stroke-miterlimit="10" x1="628.198" y1="464.491" x2="625.854" y2="460.22"/>
<line fill="#FFFFFF" stroke="#000000" stroke-width="0.5" stroke-linecap="round" stroke-linejoin="round" stroke-miterlimit="10" x1="628.792" y1="469.128" x2="626.465" y2="464.792"/>
<line fill="#FFFFFF" stroke="#000000" stroke-width="0.5" stroke-linecap="round" stroke-linejoin="round" stroke-miterlimit="10" x1="630.525" y1="468.827" x2="628.198" y2="464.491"/>
<line fill="#FFFFFF" stroke="#000000" stroke-width="0.5" stroke-linecap="round" stroke-linejoin="round" stroke-miterlimit="10" x1="631.107" y1="473.504" x2="628.792" y2="469.128"/>
<line fill="#FFFFFF" stroke="#000000" stroke-width="0.5" stroke-linecap="round" stroke-linejoin="round" stroke-miterlimit="10" x1="632.839" y1="473.203" x2="630.525" y2="468.827"/>
<polyline fill="#FFFFFF" stroke="#000000" stroke-width="0.5" stroke-linecap="round" stroke-linejoin="round" stroke-miterlimit="10" points="
	632.839,473.203 635.141,477.596 633.407,477.896 631.107,473.504 "/>
<polyline fill="#FFFFFF" stroke="#000000" stroke-width="0.5" stroke-linecap="round" stroke-linejoin="round" stroke-miterlimit="10" points="
	635.141,477.596 641.308,488.928 639.574,489.229 633.407,477.896 "/>
<polyline fill="#FFFFFF" stroke="#000000" stroke-width="0.5" stroke-linecap="round" stroke-linejoin="round" stroke-miterlimit="10" points="
	614.018,448.673 616.432,453.215 618.889,457.741 619.414,458.648 619.952,459.487 621.023,461.014 621.553,461.757 622.067,462.51 
	622.567,463.302 623.054,464.156 624.057,466.117 625.043,468.126 626.047,470.125 626.571,471.111 627.113,472.075 
	628.284,474.026 629.475,475.901 630.675,477.713 631.874,479.464 633.195,481.469 633.928,482.602 634.688,483.744 
	635.454,484.831 635.838,485.343 636.216,485.814 636.59,486.246 636.959,486.628 637.322,486.952 639.574,489.229 "/>
<line fill="#FFFFFF" stroke="#000000" stroke-width="0.5" stroke-linecap="round" stroke-linejoin="round" stroke-miterlimit="10" x1="631.409" y1="487.153" x2="629.294" y2="483.699"/>
<line fill="#FFFFFF" stroke="#000000" stroke-width="0.5" stroke-linecap="round" stroke-linejoin="round" stroke-miterlimit="10" x1="633.143" y1="486.853" x2="631.027" y2="483.398"/>
<polyline fill="#FFFFFF" stroke="#000000" stroke-width="0.5" stroke-linecap="round" stroke-linejoin="round" stroke-miterlimit="10" points="
	633.143,486.853 635.403,490.492 633.67,490.793 631.409,487.153 "/>
<polyline fill="#FFFFFF" stroke="#000000" stroke-width="0.5" stroke-linecap="round" stroke-linejoin="round" stroke-miterlimit="10" points="
	635.403,490.492 637.049,492.872 635.315,493.173 633.67,490.793 "/>
<polyline fill="#FFFFFF" stroke="#000000" stroke-width="0.5" stroke-linecap="round" stroke-linejoin="round" stroke-miterlimit="10" points="
	599.335,432.543 597.602,432.844 600.005,439.188 600.951,441.432 601.918,443.686 602.908,445.912 603.922,448.072 604.44,449.123 
	604.964,450.142 605.498,451.128 606.038,452.075 608.193,455.668 610.373,459.216 612.557,462.754 614.722,466.335 
	615.258,467.185 615.819,467.981 616.391,468.729 616.965,469.443 618.107,470.825 618.662,471.522 619.203,472.246 
	619.776,473.075 620.334,473.945 621.432,475.769 622.528,477.626 623.092,478.548 623.669,479.445 624.749,481.041 
	625.896,482.657 627.086,484.267 628.307,485.843 629.537,487.356 630.764,488.782 631.964,490.088 632.555,490.69 635.315,493.173 
	"/>
<polyline fill="#FFFFFF" stroke="#000000" stroke-width="0.5" stroke-linecap="round" stroke-linejoin="round" stroke-miterlimit="10" points="
	599.335,432.543 600.588,434.343 598.854,434.644 597.602,432.844 "/>
<polyline fill="#FFFFFF" stroke="#000000" stroke-width="0.5" stroke-linecap="round" stroke-linejoin="round" stroke-miterlimit="10" points="
	600.588,434.343 600.865,434.662 599.132,434.963 598.854,434.644 "/>
<polyline fill="#FFFFFF" stroke="#000000" stroke-width="0.5" stroke-linecap="round" stroke-linejoin="round" stroke-miterlimit="10" points="
	600.865,434.662 601.139,435.019 599.405,435.318 599.132,434.963 "/>
<polyline fill="#FFFFFF" stroke="#000000" stroke-width="0.5" stroke-linecap="round" stroke-linejoin="round" stroke-miterlimit="10" points="
	601.139,435.019 601.41,435.414 599.677,435.715 599.405,435.318 "/>
<polyline fill="#FFFFFF" stroke="#000000" stroke-width="0.5" stroke-linecap="round" stroke-linejoin="round" stroke-miterlimit="10" points="
	601.41,435.414 601.939,436.274 600.206,436.575 599.677,435.715 "/>
<polyline fill="#FFFFFF" stroke="#000000" stroke-width="0.5" stroke-linecap="round" stroke-linejoin="round" stroke-miterlimit="10" points="
	601.939,436.274 602.464,437.216 600.73,437.517 600.206,436.575 "/>
<line fill="#FFFFFF" stroke="#000000" stroke-width="0.5" stroke-linecap="round" stroke-linejoin="round" stroke-miterlimit="10" x1="601.724" y1="439.43" x2="600.73" y2="437.517"/>
<line fill="#FFFFFF" stroke="#000000" stroke-width="0.5" stroke-linecap="round" stroke-linejoin="round" stroke-miterlimit="10" x1="603.457" y1="439.129" x2="602.464" y2="437.216"/>
<polyline fill="#FFFFFF" stroke="#000000" stroke-width="0.5" stroke-linecap="round" stroke-linejoin="round" stroke-miterlimit="10" points="
	603.457,439.129 603.916,440.006 602.183,440.307 601.724,439.43 "/>
<polyline fill="#FFFFFF" stroke="#000000" stroke-width="0.5" stroke-linecap="round" stroke-linejoin="round" stroke-miterlimit="10" points="
	603.916,440.006 604.339,440.766 602.605,441.066 602.183,440.307 "/>
<line fill="#FFFFFF" stroke="#000000" stroke-width="0.5" stroke-linecap="round" stroke-linejoin="round" stroke-miterlimit="10" x1="603.749" y1="442.988" x2="602.605" y2="441.066"/>
<line fill="#FFFFFF" stroke="#000000" stroke-width="0.5" stroke-linecap="round" stroke-linejoin="round" stroke-miterlimit="10" x1="605.482" y1="442.688" x2="604.339" y2="440.766"/>
<line fill="#FFFFFF" stroke="#000000" stroke-width="0.5" stroke-linecap="round" stroke-linejoin="round" stroke-miterlimit="10" x1="604.906" y1="444.886" x2="603.749" y2="442.988"/>
<line fill="#FFFFFF" stroke="#000000" stroke-width="0.5" stroke-linecap="round" stroke-linejoin="round" stroke-miterlimit="10" x1="606.64" y1="444.585" x2="605.482" y2="442.688"/>
<line fill="#FFFFFF" stroke="#000000" stroke-width="0.5" stroke-linecap="round" stroke-linejoin="round" stroke-miterlimit="10" x1="606.074" y1="446.756" x2="604.906" y2="444.886"/>
<line fill="#FFFFFF" stroke="#000000" stroke-width="0.5" stroke-linecap="round" stroke-linejoin="round" stroke-miterlimit="10" x1="607.808" y1="446.455" x2="606.64" y2="444.585"/>
<line fill="#FFFFFF" stroke="#000000" stroke-width="0.5" stroke-linecap="round" stroke-linejoin="round" stroke-miterlimit="10" x1="607.254" y1="448.598" x2="606.074" y2="446.756"/>
<line fill="#FFFFFF" stroke="#000000" stroke-width="0.5" stroke-linecap="round" stroke-linejoin="round" stroke-miterlimit="10" x1="608.986" y1="448.297" x2="607.808" y2="446.455"/>
<line fill="#FFFFFF" stroke="#000000" stroke-width="0.5" stroke-linecap="round" stroke-linejoin="round" stroke-miterlimit="10" x1="609.588" y1="452.161" x2="607.254" y2="448.598"/>
<line fill="#FFFFFF" stroke="#000000" stroke-width="0.5" stroke-linecap="round" stroke-linejoin="round" stroke-miterlimit="10" x1="611.321" y1="451.86" x2="608.986" y2="448.297"/>
<line fill="#FFFFFF" stroke="#000000" stroke-width="0.5" stroke-linecap="round" stroke-linejoin="round" stroke-miterlimit="10" x1="611.936" y1="455.694" x2="609.588" y2="452.161"/>
<line fill="#FFFFFF" stroke="#000000" stroke-width="0.5" stroke-linecap="round" stroke-linejoin="round" stroke-miterlimit="10" x1="613.667" y1="455.395" x2="611.321" y2="451.86"/>
<line fill="#FFFFFF" stroke="#000000" stroke-width="0.5" stroke-linecap="round" stroke-linejoin="round" stroke-miterlimit="10" x1="614.279" y1="459.25" x2="611.936" y2="455.694"/>
<line fill="#FFFFFF" stroke="#000000" stroke-width="0.5" stroke-linecap="round" stroke-linejoin="round" stroke-miterlimit="10" x1="616.011" y1="458.947" x2="613.667" y2="455.395"/>
<line fill="#FFFFFF" stroke="#000000" stroke-width="0.5" stroke-linecap="round" stroke-linejoin="round" stroke-miterlimit="10" x1="615.445" y1="461.052" x2="614.279" y2="459.25"/>
<line fill="#FFFFFF" stroke="#000000" stroke-width="0.5" stroke-linecap="round" stroke-linejoin="round" stroke-miterlimit="10" x1="617.179" y1="460.751" x2="616.011" y2="458.947"/>
<line fill="#FFFFFF" stroke="#000000" stroke-width="0.5" stroke-linecap="round" stroke-linejoin="round" stroke-miterlimit="10" x1="616.606" y1="462.881" x2="615.445" y2="461.052"/>
<line fill="#FFFFFF" stroke="#000000" stroke-width="0.5" stroke-linecap="round" stroke-linejoin="round" stroke-miterlimit="10" x1="618.34" y1="462.58" x2="617.179" y2="460.751"/>
<line fill="#FFFFFF" stroke="#000000" stroke-width="0.5" stroke-linecap="round" stroke-linejoin="round" stroke-miterlimit="10" x1="618.743" y1="466.314" x2="616.606" y2="462.881"/>
<line fill="#FFFFFF" stroke="#000000" stroke-width="0.5" stroke-linecap="round" stroke-linejoin="round" stroke-miterlimit="10" x1="620.477" y1="466.015" x2="618.34" y2="462.58"/>
<line fill="#FFFFFF" stroke="#000000" stroke-width="0.5" stroke-linecap="round" stroke-linejoin="round" stroke-miterlimit="10" x1="620.867" y1="469.778" x2="618.743" y2="466.314"/>
<line fill="#FFFFFF" stroke="#000000" stroke-width="0.5" stroke-linecap="round" stroke-linejoin="round" stroke-miterlimit="10" x1="622.599" y1="469.478" x2="620.477" y2="466.015"/>
<line fill="#FFFFFF" stroke="#000000" stroke-width="0.5" stroke-linecap="round" stroke-linejoin="round" stroke-miterlimit="10" x1="625.082" y1="476.74" x2="620.867" y2="469.778"/>
<line fill="#FFFFFF" stroke="#000000" stroke-width="0.5" stroke-linecap="round" stroke-linejoin="round" stroke-miterlimit="10" x1="626.815" y1="476.439" x2="622.599" y2="469.478"/>
<line fill="#FFFFFF" stroke="#000000" stroke-width="0.5" stroke-linecap="round" stroke-linejoin="round" stroke-miterlimit="10" x1="629.294" y1="483.699" x2="625.082" y2="476.74"/>
<line fill="#FFFFFF" stroke="#000000" stroke-width="0.5" stroke-linecap="round" stroke-linejoin="round" stroke-miterlimit="10" x1="631.027" y1="483.398" x2="626.815" y2="476.439"/>
<polyline fill="#FFFFFF" stroke="#000000" stroke-width="0.5" stroke-linecap="round" stroke-linejoin="round" stroke-miterlimit="10" points="
	592.35,437.248 590.616,437.549 590.722,437.833 590.832,438.123 590.943,438.415 591.059,438.708 591.176,439.007 591.296,439.306 
	591.417,439.61 591.541,439.914 591.669,440.222 591.797,440.531 591.928,440.843 592.062,441.156 592.194,441.473 592.332,441.79 
	592.47,442.108 592.61,442.427 592.752,442.749 592.896,443.071 593.041,443.394 593.188,443.718 593.485,444.369 593.788,445.021 
	594.094,445.674 594.405,446.326 594.718,446.978 595.035,447.627 595.355,448.271 595.676,448.912 595.998,449.55 596.158,449.864 
	596.32,450.178 596.48,450.489 596.643,450.799 596.803,451.106 596.965,451.411 597.125,451.715 597.285,452.014 597.445,452.311 
	597.604,452.606 597.762,452.897 597.92,453.186 598.079,453.472 598.235,453.754 598.391,454.031 598.545,454.307 598.7,454.577 
	598.853,454.846 599.004,455.108 599.155,455.367 599.305,455.623 599.452,455.873 599.598,456.118 599.744,456.359 
	599.888,456.595 600.03,456.827 600.365,457.372 600.699,457.922 601.031,458.471 601.362,459.021 601.691,459.572 602.019,460.125 
	602.347,460.679 602.671,461.235 603.318,462.348 603.963,463.464 604.605,464.583 605.246,465.705 606.524,467.953 
	607.805,470.205 608.447,471.33 609.093,472.455 609.743,473.578 610.396,474.699 610.56,474.975 610.724,475.25 610.888,475.521 
	611.053,475.792 611.219,476.06 611.386,476.326 611.554,476.591 611.723,476.854 611.892,477.116 612.062,477.376 612.23,477.633 
	612.401,477.891 612.745,478.398 613.091,478.902 613.438,479.399 613.785,479.893 614.137,480.38 614.489,480.864 614.842,481.343 
	615.197,481.82 615.552,482.293 615.908,482.764 616.264,483.233 616.622,483.699 617.337,484.626 618.05,485.55 618.763,486.473 
	619.47,487.4 619.823,487.864 620.174,488.331 620.523,488.799 620.87,489.269 621.218,489.742 621.562,490.219 "/>
<polyline fill="#FFFFFF" stroke="#000000" stroke-width="0.5" stroke-linecap="round" stroke-linejoin="round" stroke-miterlimit="10" points="
	595.52,445.426 595.449,445.321 595.379,445.214 595.307,445.102 595.236,444.99 595.163,444.873 595.091,444.756 595.019,444.636 
	594.945,444.514 594.871,444.389 594.797,444.261 594.648,444.004 594.497,443.739 594.344,443.468 594.191,443.192 
	594.036,442.913 593.881,442.631 593.727,442.346 593.411,441.775 593.096,441.205 592.938,440.922 592.78,440.644 592.621,440.368 
	592.463,440.098 592.304,439.833 592.146,439.576 592.068,439.448 591.989,439.324 591.912,439.201 591.833,439.083 
	591.755,438.964 591.678,438.849 591.599,438.737 591.521,438.625 591.446,438.52 591.368,438.415 591.291,438.312 591.215,438.213 
	591.14,438.118 591.064,438.026 590.989,437.938 590.913,437.852 590.837,437.771 590.764,437.693 590.69,437.619 590.616,437.549 
	"/>
<polyline fill="#FFFFFF" stroke="#000000" stroke-width="0.5" stroke-linecap="round" stroke-linejoin="round" stroke-miterlimit="10" points="
	597.253,445.125 597.183,445.021 597.112,444.913 597.04,444.801 596.968,444.689 596.896,444.572 596.824,444.456 596.75,444.335 
	596.679,444.213 596.604,444.089 596.529,443.961 596.38,443.703 596.23,443.438 596.077,443.167 595.924,442.892 595.77,442.612 
	595.614,442.33 595.458,442.045 595.145,441.475 594.828,440.904 594.669,440.622 594.511,440.343 594.354,440.067 594.196,439.797 
	594.038,439.532 593.879,439.273 593.802,439.147 593.723,439.023 593.644,438.9 593.566,438.782 593.489,438.663 593.41,438.548 
	593.332,438.437 593.255,438.325 593.177,438.219 593.102,438.112 593.024,438.012 592.949,437.912 592.872,437.817 
	592.796,437.726 592.72,437.637 592.646,437.551 592.571,437.47 592.497,437.393 592.423,437.318 592.35,437.248 "/>
<polyline fill="#FFFFFF" stroke="#000000" stroke-width="0.5" stroke-linecap="round" stroke-linejoin="round" stroke-miterlimit="10" points="
	601.188,453.463 601.011,453.198 600.836,452.936 600.66,452.676 600.483,452.417 600.131,451.906 599.776,451.4 599.422,450.901 
	599.067,450.404 598.711,449.911 598.354,449.42 597.644,448.439 597.287,447.945 596.933,447.452 596.577,446.954 596.223,446.45 
	595.87,445.94 595.695,445.685 595.52,445.426 "/>
<polyline fill="#FFFFFF" stroke="#000000" stroke-width="0.5" stroke-linecap="round" stroke-linejoin="round" stroke-miterlimit="10" points="
	602.919,453.162 602.744,452.897 602.569,452.635 602.394,452.376 602.217,452.116 601.864,451.605 601.51,451.1 601.155,450.601 
	600.799,450.104 600.444,449.61 600.088,449.119 599.375,448.139 599.021,447.646 598.666,447.15 598.311,446.653 597.956,446.149 
	597.604,445.64 597.427,445.385 597.253,445.125 "/>
<polyline fill="#FFFFFF" stroke="#000000" stroke-width="0.5" stroke-linecap="round" stroke-linejoin="round" stroke-miterlimit="10" points="
	611.467,469.988 611.167,469.441 610.862,468.895 610.557,468.351 610.249,467.809 609.938,467.269 609.624,466.73 609.309,466.196 
	608.992,465.663 608.674,465.132 608.355,464.603 608.033,464.075 607.711,463.55 607.387,463.028 607.061,462.506 606.735,461.987 
	606.409,461.471 606.082,460.956 605.754,460.443 605.427,459.932 605.097,459.425 604.77,458.917 604.44,458.413 604.112,457.909 
	603.785,457.406 603.457,456.908 603.13,456.411 602.804,455.914 602.478,455.421 602.154,454.928 601.83,454.438 601.508,453.949 
	601.188,453.463 "/>
<polyline fill="#FFFFFF" stroke="#000000" stroke-width="0.5" stroke-linecap="round" stroke-linejoin="round" stroke-miterlimit="10" points="
	613.2,469.688 612.9,469.141 612.596,468.594 612.29,468.05 611.98,467.508 611.671,466.968 611.357,466.43 611.042,465.896 
	610.726,465.362 610.407,464.832 610.087,464.303 609.767,463.775 609.444,463.249 609.12,462.728 608.794,462.205 608.469,461.688 
	608.143,461.17 607.815,460.655 607.487,460.143 607.16,459.632 606.83,459.124 606.503,458.616 606.174,458.112 605.846,457.608 
	605.519,457.106 605.19,456.607 604.863,456.11 604.537,455.614 604.211,455.121 603.886,454.627 603.563,454.138 603.241,453.648 
	602.919,453.162 "/>
<polyline fill="#FFFFFF" stroke="#000000" stroke-width="0.5" stroke-linecap="round" stroke-linejoin="round" stroke-miterlimit="10" points="
	621.856,486.043 621.525,485.555 621.196,485.067 620.534,484.101 619.871,483.138 619.209,482.177 618.549,481.217 
	617.888,480.256 617.23,479.291 616.901,478.805 616.574,478.317 616.248,477.827 615.92,477.334 615.597,476.84 615.271,476.341 
	614.948,475.839 614.626,475.333 614.304,474.821 613.983,474.307 613.665,473.788 613.347,473.263 613.029,472.731 
	612.715,472.197 612.399,471.655 612.088,471.106 611.932,470.829 611.776,470.552 611.622,470.271 611.467,469.988 "/>
<polyline fill="#FFFFFF" stroke="#000000" stroke-width="0.5" stroke-linecap="round" stroke-linejoin="round" stroke-miterlimit="10" points="
	623.59,485.742 623.259,485.254 622.928,484.767 622.268,483.8 621.604,482.837 620.942,481.876 620.282,480.916 619.621,479.955 
	618.963,478.99 618.635,478.504 618.308,478.017 617.979,477.527 617.654,477.034 617.328,476.539 617.004,476.04 616.68,475.538 
	616.357,475.032 616.037,474.521 615.717,474.006 615.396,473.488 615.08,472.962 614.763,472.432 614.448,471.896 614.133,471.354 
	613.821,470.806 613.665,470.528 613.51,470.251 613.355,469.971 613.2,469.688 "/>
<polyline fill="#FFFFFF" stroke="#000000" stroke-width="0.5" stroke-linecap="round" stroke-linejoin="round" stroke-miterlimit="10" points="
	623.59,485.742 624.301,486.801 625.011,487.866 625.718,488.936 626.424,490.01 627.131,491.086 627.835,492.166 629.246,494.332 
	630.655,496.495 631.36,497.575 632.066,498.653 632.773,499.727 633.481,500.798 634.19,501.861 634.901,502.922 633.17,503.222 
	632.459,502.162 631.748,501.098 631.04,500.027 630.333,498.954 629.627,497.876 628.922,496.796 627.513,494.633 626.103,492.467 
	625.397,491.387 624.691,490.311 623.984,489.236 623.277,488.167 622.567,487.103 621.856,486.043 "/>
<polyline fill="#FFFFFF" stroke="#000000" stroke-width="0.5" stroke-linecap="round" stroke-linejoin="round" stroke-miterlimit="10" points="
	621.562,490.219 621.651,490.345 621.745,490.473 621.933,490.729 622.127,490.989 622.326,491.25 622.53,491.517 622.737,491.783 
	622.949,492.053 623.165,492.323 623.385,492.595 623.608,492.87 623.833,493.144 624.062,493.419 624.294,493.696 624.526,493.974 
	624.762,494.251 624.998,494.526 625.477,495.079 625.957,495.63 626.441,496.173 626.683,496.443 626.924,496.711 627.163,496.978 
	627.402,497.24 627.641,497.502 627.878,497.761 628.111,498.015 628.346,498.267 628.576,498.515 628.805,498.76 629.029,498.999 
	629.251,499.236 629.471,499.467 629.685,499.694 629.897,499.917 630.002,500.027 630.104,500.135 630.205,500.241 
	630.308,500.346 630.407,500.45 630.506,500.553 630.603,500.653 630.698,500.752 630.794,500.85 630.886,500.947 630.978,501.04 
	631.069,501.134 631.157,501.226 631.246,501.315 631.332,501.404 631.417,501.49 631.499,501.575 631.58,501.658 631.661,501.739 
	631.738,501.818 631.816,501.896 631.89,501.971 631.964,502.045 632.034,502.117 632.104,502.188 632.171,502.256 632.237,502.32 
	632.301,502.383 632.361,502.446 632.421,502.506 632.479,502.563 632.534,502.617 632.588,502.671 632.641,502.722 
	632.689,502.771 632.736,502.815 632.781,502.86 632.824,502.901 632.863,502.939 632.901,502.978 632.938,503.012 632.97,503.042 
	633.001,503.072 633.029,503.1 633.055,503.123 633.078,503.145 633.1,503.164 633.117,503.181 633.132,503.193 633.145,503.204 
	633.155,503.213 633.162,503.219 633.168,503.222 633.17,503.222 "/>
<line fill="#FFFFFF" stroke="#000000" stroke-width="0.5" stroke-linecap="round" stroke-linejoin="round" stroke-miterlimit="10" x1="634.901" y1="502.922" x2="634.901" y2="502.922"/>
<polyline fill="#FCFAFB" stroke="#000000" stroke-width="0.5" stroke-linecap="round" stroke-linejoin="round" stroke-miterlimit="10" points="
	602.532,276.3 602.537,276.181 602.545,276.06 602.558,275.938 602.571,275.812 602.592,275.686 602.613,275.556 602.639,275.425 
	602.667,275.293 602.699,275.158 602.733,275.023 602.771,274.885 602.812,274.746 602.856,274.606 602.902,274.465 
	602.951,274.321 603.002,274.177 603.056,274.032 603.109,273.886 603.169,273.738 603.229,273.591 603.29,273.441 603.354,273.292 
	603.419,273.141 603.486,272.989 603.557,272.836 603.626,272.684 603.772,272.377 603.922,272.069 604.076,271.762 
	604.234,271.452 604.395,271.145 604.559,270.836 604.723,270.531 604.889,270.225 605.052,269.924 605.218,269.625 605.38,269.328 
	605.54,269.039 605.696,268.75 605.773,268.61 605.852,268.47 605.925,268.331 605.999,268.194 606.072,268.058 606.143,267.924 
	606.213,267.791 606.281,267.662 606.348,267.532 606.411,267.406 606.474,267.28 606.535,267.157 606.776,266.668 607.021,266.178 
	607.268,265.69 607.517,265.201 607.769,264.711 608.023,264.224 608.283,263.735 608.548,263.248 608.814,262.762 609.086,262.276 
	609.361,261.79 609.641,261.306 609.927,260.823 610.216,260.343 610.514,259.862 610.662,259.623 610.813,259.383 610.96,259.158 
	611.105,258.937 611.255,258.715 611.408,258.496 611.561,258.278 611.716,258.062 611.874,257.846 612.032,257.632 
	612.192,257.419 612.354,257.207 612.681,256.784 613.012,256.365 613.345,255.947 614.016,255.114 614.351,254.696 
	614.684,254.276 615.015,253.855 615.341,253.433 615.503,253.218 615.663,253.004 615.823,252.788 615.979,252.572 
	616.054,252.468 616.126,252.365 616.266,252.156 616.401,251.947 616.53,251.737 616.656,251.526 616.779,251.314 616.896,251.102 
	617.011,250.889 617.121,250.675 617.23,250.46 617.337,250.247 617.441,250.032 617.646,249.6 617.849,249.17 618.05,248.736 
	618.255,248.304 618.357,248.088 618.464,247.872 618.572,247.656 618.684,247.442 618.797,247.226 618.914,247.012 
	619.034,246.796 619.158,246.582 619.286,246.369 619.422,246.157 619.56,245.944 619.704,245.732 620.422,244.704 621.141,243.678 
	621.86,242.656 622.584,241.637 623.31,240.622 624.036,239.61 624.768,238.602 625.504,237.598 626.241,236.595 626.985,235.598 
	627.733,234.604 628.11,234.107 628.488,233.613 628.866,233.119 629.246,232.626 629.629,232.135 630.013,231.644 630.396,231.154 
	630.783,230.664 631.172,230.176 631.562,229.688 631.953,229.203 632.348,228.717 632.743,228.232 633.141,227.748 
	633.541,227.266 633.942,226.785 634.346,226.305 634.752,225.826 635.159,225.347 635.569,224.868 635.983,224.393 
	636.397,223.918 636.814,223.442 637.234,222.969 637.657,222.498 638.082,222.026 638.509,221.554 638.938,221.086 
	639.373,220.618 639.809,220.15 640.246,219.684 640.687,219.22 641.131,218.755 641.577,218.293 642.027,217.83 642.479,217.369 
	642.937,216.91 643.396,216.451 643.858,215.994 644.322,215.537 644.792,215.082 645.264,214.628 646.997,214.327 636.451,229.615 
	636.607,229.397 636.767,229.177 636.93,228.958 637.094,228.736 637.261,228.513 637.431,228.288 637.602,228.063 637.774,227.836 
	637.95,227.609 638.127,227.381 638.305,227.15 638.485,226.92 638.667,226.688 638.851,226.456 639.22,225.988 639.594,225.516 
	639.971,225.043 640.35,224.566 640.729,224.087 641.491,223.122 641.871,222.64 642.247,222.154 642.621,221.669 642.992,221.184 
	643.357,220.698 643.538,220.455 643.716,220.213 643.895,219.97 644.068,219.729 644.243,219.486 644.414,219.245 644.584,219.004 
	644.751,218.763 644.917,218.521 645.078,218.282 645.238,218.042 645.397,217.803 645.552,217.565 645.703,217.328 645.853,217.09 
	645.998,216.853 646.141,216.619 646.279,216.383 646.416,216.149 646.547,215.915 646.677,215.683 646.801,215.452 
	646.922,215.222 647.039,214.992 647.152,214.763 647.262,214.536 645.528,214.837 645.419,215.063 645.308,215.292 645.19,215.522 
	645.067,215.753 644.943,215.983 644.815,216.216 644.683,216.45 644.548,216.684 644.407,216.919 644.265,217.155 644.119,217.391 
	643.97,217.628 643.818,217.866 643.664,218.104 643.507,218.343 643.347,218.583 643.184,218.822 643.02,219.063 642.852,219.304 
	642.681,219.545 642.51,219.787 642.337,220.03 642.161,220.271 641.984,220.514 641.805,220.755 641.624,220.998 641.259,221.484 
	640.889,221.97 640.516,222.455 640.138,222.94 639.76,223.423 638.998,224.388 638.616,224.866 638.238,225.343 637.86,225.817 
	637.488,226.289 637.117,226.756 636.936,226.989 636.754,227.221 636.573,227.451 636.394,227.682 636.217,227.91 636.043,228.137 
	635.868,228.364 635.697,228.589 635.527,228.814 635.36,229.037 635.196,229.258 635.034,229.478 634.874,229.698 634.718,229.916 
	634.376,230.391 634.037,230.866 633.699,231.343 633.362,231.818 633.027,232.293 632.694,232.769 632.361,233.244 
	632.032,233.719 631.375,234.671 630.726,235.622 630.079,236.575 629.438,237.527 628.803,238.483 628.173,239.441 627.547,240.4 
	626.926,241.362 626.309,242.325 625.694,243.293 625.084,244.263 624.478,245.237 624.17,245.73 623.862,246.224 623.551,246.715 
	623.239,247.208 622.924,247.699 622.609,248.191 622.291,248.682 621.971,249.174 621.649,249.665 621.326,250.155 621,250.646 
	620.674,251.136 620.347,251.627 620.018,252.117 619.686,252.606 619.353,253.096 618.684,254.073 618.009,255.051 617.33,256.026 
	616.646,257.002 615.958,257.978 615.266,258.949 614.57,259.923 613.87,260.894 613.17,261.865 612.465,262.834 611.759,263.802 
	611.05,264.771 609.629,266.702 608.205,268.63 606.782,270.554 605.359,272.475 604.648,273.432 603.941,274.39 603.235,275.346 
	602.532,276.3 604.266,275.999 604.969,275.045 605.675,274.089 606.382,273.132 607.092,272.174 608.514,270.253 609.939,268.329 
	611.363,266.401 612.783,264.47 613.492,263.501 614.198,262.533 614.901,261.565 615.604,260.593 616.302,259.623 616.999,258.649 
	617.689,257.677 618.379,256.701 619.063,255.726 619.742,254.75 620.417,253.772 621.086,252.795 621.419,252.306 621.749,251.816 
	622.08,251.326 622.407,250.835 622.733,250.345 623.06,249.854 623.382,249.364 623.703,248.873 624.024,248.382 624.341,247.89 
	624.657,247.399 624.973,246.907 625.284,246.414 625.596,245.923 625.903,245.43 626.209,244.937 626.815,243.962 627.426,242.992 
	628.04,242.024 628.659,241.061 629.28,240.098 629.906,239.141 630.536,238.183 631.172,237.227 631.812,236.275 632.459,235.321 
	633.108,234.371 633.766,233.418 634.095,232.943 634.428,232.468 634.761,231.993 635.096,231.518 635.433,231.042 
	635.769,230.565 636.109,230.09 636.451,229.615 "/>
<line fill="#FCFAFB" stroke="#000000" stroke-width="0.5" stroke-linecap="round" stroke-linejoin="round" stroke-miterlimit="10" x1="645.528" y1="214.837" x2="645.264" y2="214.628"/>
<line fill="#FCFAFB" stroke="#000000" stroke-width="0.5" stroke-linecap="round" stroke-linejoin="round" stroke-miterlimit="10" x1="647.262" y1="214.536" x2="646.997" y2="214.327"/>
<path fill="none" stroke="#000000" stroke-width="0.5" stroke-linecap="round" stroke-linejoin="round" stroke-miterlimit="10" d="
	M580.447,541.122c10.655,1.103,21.28,0.788,31.697-0.939"/>
<path fill="none" stroke="#000000" stroke-width="0.5" stroke-linecap="round" stroke-linejoin="round" stroke-miterlimit="10" d="
	M629.098,545.328c84.675-14.692,138.131-114.134,119.396-222.108S645.927,139.626,561.251,154.318"/>
<line fill="#FFFFFF" stroke="#000000" stroke-width="0.5" stroke-linecap="round" stroke-linejoin="round" stroke-miterlimit="10" x1="633.168" y1="503.222" x2="634.901" y2="502.922"/>
<line fill="none" stroke="#000000" stroke-width="0.5" stroke-linecap="round" stroke-linejoin="round" stroke-miterlimit="10" x1="544.793" y1="157.176" x2="561.256" y2="154.319"/>
<line fill="none" stroke="#000000" stroke-width="0.5" stroke-linecap="round" stroke-linejoin="round" stroke-miterlimit="10" x1="612.626" y1="548.186" x2="629.089" y2="545.329"/>
<path fill="none" stroke="#000000" stroke-width="0.5" stroke-linecap="round" stroke-linejoin="round" stroke-miterlimit="10" d="
	M577.997,354.046c0-3.103-2.008-5.826-4.486-6.083c-2.478-0.257-4.485,2.051-4.485,5.153s2.008,5.826,4.486,6.083
	C575.989,359.456,577.997,357.149,577.997,354.046"/>
<line fill="none" stroke="#000000" stroke-width="0.5" stroke-linecap="round" stroke-linejoin="round" stroke-miterlimit="10" x1="581.411" y1="357.966" x2="574.479" y2="359.168"/>
<line fill="none" stroke="#000000" stroke-width="0.5" stroke-linecap="round" stroke-linejoin="round" stroke-miterlimit="10" x1="577.741" y1="347.095" x2="572.542" y2="347.997"/>
<g>
	<defs>
		<polyline id="SVGID_1_" points="0,842 1190.551,842 1190.551,0.111 0,0.111 0,842 		"/>
	</defs>
	<clipPath id="SVGID_2_">
		<use xlink:href="#SVGID_1_"  overflow="visible"/>
	</clipPath>
	
		<line clip-path="url(#SVGID_2_)" fill="none" stroke="#000000" stroke-width="0.5" stroke-linecap="round" stroke-linejoin="round" stroke-miterlimit="10" x1="0" y1="842" x2="42.52" y2="842"/>
	
		<line clip-path="url(#SVGID_2_)" fill="none" stroke="#000000" stroke-width="0.5" stroke-linecap="round" stroke-linejoin="round" stroke-miterlimit="10" x1="1148.029" y1="842" x2="1190.549" y2="842"/>
	
		<line clip-path="url(#SVGID_2_)" fill="none" stroke="#000000" stroke-width="0.5" stroke-linecap="round" stroke-linejoin="round" stroke-miterlimit="10" x1="56.693" y1="813.653" x2="1162.202" y2="813.653"/>
	
		<line clip-path="url(#SVGID_2_)" fill="none" stroke="#000000" stroke-width="0.5" stroke-linecap="round" stroke-linejoin="round" stroke-miterlimit="10" x1="1190.549" y1="842" x2="1190.549" y2="799.48"/>
	
		<polyline clip-path="url(#SVGID_2_)" fill="none" stroke="#000000" stroke-width="0.5" stroke-linecap="round" stroke-linejoin="round" stroke-miterlimit="10" points="
		1190.549,42.633 1190.549,0.113 1148.029,0.113 	"/>
	
		<line clip-path="url(#SVGID_2_)" fill="none" stroke="#000000" stroke-width="0.5" stroke-linecap="round" stroke-linejoin="round" stroke-miterlimit="10" x1="42.52" y1="0.113" x2="0" y2="0.113"/>
	
		<line clip-path="url(#SVGID_2_)" fill="none" stroke="#000000" stroke-width="0.5" stroke-linecap="round" stroke-linejoin="round" stroke-miterlimit="10" x1="1162.202" y1="28.459" x2="56.693" y2="28.459"/>
	
		<line clip-path="url(#SVGID_2_)" fill="none" stroke="#000000" stroke-width="0.5" stroke-linecap="round" stroke-linejoin="round" stroke-miterlimit="10" x1="0" y1="0.113" x2="0" y2="42.633"/>
	
		<line clip-path="url(#SVGID_2_)" fill="none" stroke="#000000" stroke-width="0.5" stroke-linecap="round" stroke-linejoin="round" stroke-miterlimit="10" x1="0" y1="799.48" x2="0" y2="842"/>
	
		<line clip-path="url(#SVGID_2_)" fill="none" stroke="#000000" stroke-width="0.5" stroke-linecap="round" stroke-linejoin="round" stroke-miterlimit="10" x1="56.693" y1="28.459" x2="56.693" y2="813.653"/>
	
		<line clip-path="url(#SVGID_2_)" fill="none" stroke="#000000" stroke-width="0.5" stroke-linecap="round" stroke-linejoin="round" stroke-miterlimit="10" x1="1162.202" y1="28.459" x2="1162.202" y2="813.653"/>
	
		<line clip-path="url(#SVGID_2_)" fill="none" stroke="#000000" stroke-width="0.5" stroke-linecap="round" stroke-linejoin="round" stroke-miterlimit="10" x1="609.447" y1="827.827" x2="609.447" y2="799.48"/>
	
		<line clip-path="url(#SVGID_2_)" fill="none" stroke="#000000" stroke-width="0.5" stroke-linecap="round" stroke-linejoin="round" stroke-miterlimit="10" x1="609.447" y1="14.286" x2="609.447" y2="42.633"/>
	
		<line clip-path="url(#SVGID_2_)" fill="none" stroke="#000000" stroke-width="0.5" stroke-linecap="round" stroke-linejoin="round" stroke-miterlimit="10" x1="751.18" y1="14.286" x2="751.18" y2="28.459"/>
	
		<line clip-path="url(#SVGID_2_)" fill="none" stroke="#000000" stroke-width="0.5" stroke-linecap="round" stroke-linejoin="round" stroke-miterlimit="10" x1="892.911" y1="14.286" x2="892.911" y2="28.459"/>
	
		<line clip-path="url(#SVGID_2_)" fill="none" stroke="#000000" stroke-width="0.5" stroke-linecap="round" stroke-linejoin="round" stroke-miterlimit="10" x1="1034.644" y1="14.286" x2="1034.644" y2="28.459"/>
	
		<line clip-path="url(#SVGID_2_)" fill="none" stroke="#000000" stroke-width="0.5" stroke-linecap="round" stroke-linejoin="round" stroke-miterlimit="10" x1="467.716" y1="14.286" x2="467.716" y2="28.459"/>
	
		<line clip-path="url(#SVGID_2_)" fill="none" stroke="#000000" stroke-width="0.5" stroke-linecap="round" stroke-linejoin="round" stroke-miterlimit="10" x1="325.983" y1="14.286" x2="325.983" y2="28.459"/>
	
		<line clip-path="url(#SVGID_2_)" fill="none" stroke="#000000" stroke-width="0.5" stroke-linecap="round" stroke-linejoin="round" stroke-miterlimit="10" x1="184.251" y1="14.286" x2="184.251" y2="28.459"/>
	
		<line clip-path="url(#SVGID_2_)" fill="none" stroke="#000000" stroke-width="0.5" stroke-linecap="round" stroke-linejoin="round" stroke-miterlimit="10" x1="42.52" y1="421.056" x2="70.866" y2="421.056"/>
	
		<line clip-path="url(#SVGID_2_)" fill="none" stroke="#000000" stroke-width="0.5" stroke-linecap="round" stroke-linejoin="round" stroke-miterlimit="10" x1="42.52" y1="556.646" x2="56.693" y2="556.646"/>
	
		<line clip-path="url(#SVGID_2_)" fill="none" stroke="#000000" stroke-width="0.5" stroke-linecap="round" stroke-linejoin="round" stroke-miterlimit="10" x1="42.52" y1="692.236" x2="56.693" y2="692.236"/>
	
		<line clip-path="url(#SVGID_2_)" fill="none" stroke="#000000" stroke-width="0.5" stroke-linecap="round" stroke-linejoin="round" stroke-miterlimit="10" x1="42.52" y1="285.467" x2="56.693" y2="285.467"/>
	
		<line clip-path="url(#SVGID_2_)" fill="none" stroke="#000000" stroke-width="0.5" stroke-linecap="round" stroke-linejoin="round" stroke-miterlimit="10" x1="42.52" y1="149.876" x2="56.693" y2="149.876"/>
	
		<line clip-path="url(#SVGID_2_)" fill="none" stroke="#000000" stroke-width="0.5" stroke-linecap="round" stroke-linejoin="round" stroke-miterlimit="10" x1="1176.376" y1="421.056" x2="1148.029" y2="421.056"/>
	
		<line clip-path="url(#SVGID_2_)" fill="none" stroke="#000000" stroke-width="0.5" stroke-linecap="round" stroke-linejoin="round" stroke-miterlimit="10" x1="751.18" y1="827.827" x2="751.18" y2="813.653"/>
	
		<line clip-path="url(#SVGID_2_)" fill="none" stroke="#000000" stroke-width="0.5" stroke-linecap="round" stroke-linejoin="round" stroke-miterlimit="10" x1="892.911" y1="827.827" x2="892.911" y2="813.653"/>
	
		<line clip-path="url(#SVGID_2_)" fill="none" stroke="#000000" stroke-width="0.5" stroke-linecap="round" stroke-linejoin="round" stroke-miterlimit="10" x1="1034.644" y1="827.827" x2="1034.644" y2="813.653"/>
	
		<line clip-path="url(#SVGID_2_)" fill="none" stroke="#000000" stroke-width="0.5" stroke-linecap="round" stroke-linejoin="round" stroke-miterlimit="10" x1="467.716" y1="827.827" x2="467.716" y2="813.653"/>
	
		<line clip-path="url(#SVGID_2_)" fill="none" stroke="#000000" stroke-width="0.5" stroke-linecap="round" stroke-linejoin="round" stroke-miterlimit="10" x1="325.983" y1="827.827" x2="325.983" y2="813.653"/>
	
		<line clip-path="url(#SVGID_2_)" fill="none" stroke="#000000" stroke-width="0.5" stroke-linecap="round" stroke-linejoin="round" stroke-miterlimit="10" x1="184.251" y1="827.827" x2="184.251" y2="813.653"/>
	
		<line clip-path="url(#SVGID_2_)" fill="none" stroke="#000000" stroke-width="0.5" stroke-linecap="round" stroke-linejoin="round" stroke-miterlimit="10" x1="1176.376" y1="556.646" x2="1162.202" y2="556.646"/>
	
		<line clip-path="url(#SVGID_2_)" fill="none" stroke="#000000" stroke-width="0.5" stroke-linecap="round" stroke-linejoin="round" stroke-miterlimit="10" x1="1176.376" y1="692.236" x2="1162.202" y2="692.236"/>
	
		<line clip-path="url(#SVGID_2_)" fill="none" stroke="#000000" stroke-width="0.5" stroke-linecap="round" stroke-linejoin="round" stroke-miterlimit="10" x1="1176.376" y1="285.467" x2="1162.202" y2="285.467"/>
	
		<line clip-path="url(#SVGID_2_)" fill="none" stroke="#000000" stroke-width="0.5" stroke-linecap="round" stroke-linejoin="round" stroke-miterlimit="10" x1="1176.376" y1="149.876" x2="1162.202" y2="149.876"/>
</g>
<g>
	<defs>
		<polyline id="SVGID_3_" points="0,842 1190.551,842 1190.551,0.111 0,0.111 0,842 		"/>
	</defs>
	<clipPath id="SVGID_4_">
		<use xlink:href="#SVGID_3_"  overflow="visible"/>
	</clipPath>
	<g clip-path="url(#SVGID_4_)">
	</g>
</g>
<g>
	<defs>
		<polyline id="SVGID_5_" points="0,842 1190.551,842 1190.551,0.111 0,0.111 0,842 		"/>
	</defs>
	<clipPath id="SVGID_6_">
		<use xlink:href="#SVGID_5_"  overflow="visible"/>
	</clipPath>
	<g clip-path="url(#SVGID_6_)">
	</g>
	<g clip-path="url(#SVGID_6_)">
	</g>
	<g clip-path="url(#SVGID_6_)">
	</g>
	<g clip-path="url(#SVGID_6_)">
	</g>
	<g clip-path="url(#SVGID_6_)">
	</g>
	<g clip-path="url(#SVGID_6_)">
	</g>
	<g clip-path="url(#SVGID_6_)">
	</g>
	<g clip-path="url(#SVGID_6_)">
	</g>
	<g clip-path="url(#SVGID_6_)">
	</g>
	<g clip-path="url(#SVGID_6_)">
	</g>
	<g clip-path="url(#SVGID_6_)">
	</g>
	<g clip-path="url(#SVGID_6_)">
	</g>
	<g clip-path="url(#SVGID_6_)">
	</g>
	<g clip-path="url(#SVGID_6_)">
	</g>
	<g clip-path="url(#SVGID_6_)">
	</g>
	<g clip-path="url(#SVGID_6_)">
	</g>
	<g clip-path="url(#SVGID_6_)">
	</g>
	<g clip-path="url(#SVGID_6_)">
	</g>
	<g clip-path="url(#SVGID_6_)">
	</g>
	<g clip-path="url(#SVGID_6_)">
	</g>
	<g clip-path="url(#SVGID_6_)">
	</g>
	<g clip-path="url(#SVGID_6_)">
	</g>
	<g clip-path="url(#SVGID_6_)">
	</g>
	<g clip-path="url(#SVGID_6_)">
	</g>
	<g clip-path="url(#SVGID_6_)">
	</g>
	<g clip-path="url(#SVGID_6_)">
	</g>
	<g clip-path="url(#SVGID_6_)">
	</g>
	
		<line clip-path="url(#SVGID_6_)" fill="none" stroke="#000000" stroke-width="0.5" stroke-linecap="round" stroke-linejoin="round" stroke-miterlimit="10" x1="651.967" y1="813.653" x2="1162.202" y2="813.653"/>
	
		<line clip-path="url(#SVGID_6_)" fill="none" stroke="#000000" stroke-width="0.5" stroke-linecap="round" stroke-linejoin="round" stroke-miterlimit="10" x1="989.291" y1="785.308" x2="1162.202" y2="785.308"/>
	
		<line clip-path="url(#SVGID_6_)" fill="none" stroke="#000000" stroke-width="0.5" stroke-linecap="round" stroke-linejoin="round" stroke-miterlimit="10" x1="816.377" y1="737.119" x2="1162.202" y2="737.119"/>
	
		<line clip-path="url(#SVGID_6_)" fill="none" stroke="#000000" stroke-width="0.5" stroke-linecap="round" stroke-linejoin="round" stroke-miterlimit="10" x1="651.967" y1="708.773" x2="1162.202" y2="708.773"/>
	
		<line clip-path="url(#SVGID_6_)" fill="none" stroke="#000000" stroke-width="0.5" stroke-linecap="round" stroke-linejoin="round" stroke-miterlimit="10" x1="1162.202" y1="813.653" x2="1162.202" y2="680.427"/>
	
		<line clip-path="url(#SVGID_6_)" fill="none" stroke="#000000" stroke-width="0.5" stroke-linecap="round" stroke-linejoin="round" stroke-miterlimit="10" x1="1119.683" y1="813.653" x2="1119.683" y2="785.308"/>
	
		<line clip-path="url(#SVGID_6_)" fill="none" stroke="#000000" stroke-width="0.5" stroke-linecap="round" stroke-linejoin="round" stroke-miterlimit="10" x1="1017.637" y1="813.653" x2="1017.637" y2="785.308"/>
	
		<line clip-path="url(#SVGID_6_)" fill="none" stroke="#000000" stroke-width="0.5" stroke-linecap="round" stroke-linejoin="round" stroke-miterlimit="10" x1="989.291" y1="813.653" x2="989.291" y2="680.427"/>
	
		<line clip-path="url(#SVGID_6_)" fill="none" stroke="#000000" stroke-width="0.5" stroke-linecap="round" stroke-linejoin="round" stroke-miterlimit="10" x1="816.377" y1="813.653" x2="816.377" y2="680.427"/>
	
		<line clip-path="url(#SVGID_6_)" fill="none" stroke="#000000" stroke-width="0.5" stroke-linecap="round" stroke-linejoin="round" stroke-miterlimit="10" x1="719.998" y1="708.773" x2="719.998" y2="680.427"/>
	
		<polyline clip-path="url(#SVGID_6_)" fill="none" stroke="#000000" stroke-width="0.5" stroke-linecap="round" stroke-linejoin="round" stroke-miterlimit="10" points="
		1162.202,680.427 651.967,680.427 651.967,813.653 	"/>
	<g clip-path="url(#SVGID_6_)">
	</g>
	<g clip-path="url(#SVGID_6_)">
	</g>
	<g clip-path="url(#SVGID_6_)">
	</g>
	<g clip-path="url(#SVGID_6_)">
	</g>
	<g clip-path="url(#SVGID_6_)">
	</g>
	<g clip-path="url(#SVGID_6_)">
	</g>
	<g clip-path="url(#SVGID_6_)">
	</g>
	<g clip-path="url(#SVGID_6_)">
	</g>
	<g clip-path="url(#SVGID_6_)">
	</g>
	<g clip-path="url(#SVGID_6_)">
	</g>
	<g clip-path="url(#SVGID_6_)">
	</g>
	<g clip-path="url(#SVGID_6_)">
	</g>
	<g clip-path="url(#SVGID_6_)">
	</g>
	<g clip-path="url(#SVGID_6_)">
	</g>
	<g clip-path="url(#SVGID_6_)">
	</g>
</g>
</svg>
