<?xml version="1.0" encoding="utf-8"?>
<!-- Generator: Adobe Illustrator 16.0.0, SVG Export Plug-In . SVG Version: 6.00 Build 0)  -->
<!DOCTYPE svg PUBLIC "-//W3C//DTD SVG 1.1//EN" "http://www.w3.org/Graphics/SVG/1.1/DTD/svg11.dtd">
<svg version="1.1" id="Layer_1" xmlns="http://www.w3.org/2000/svg" xmlns:xlink="http://www.w3.org/1999/xlink" x="0px" y="0px"
     width="566.93px" height="566.93px" viewBox="0 0 566.93 566.93" enable-background="new 0 0 566.93 566.93" xml:space="preserve">
<line fill="none" stroke="#000000" stroke-miterlimit="10" x1="301.363" y1="49.937" x2="292.941" y2="94.209"/>
<line fill="none" stroke="#000000" stroke-miterlimit="10" x1="269.293" y1="31.469" x2="301.363" y2="49.937"/>
<line fill="none" stroke="#000000" stroke-miterlimit="10" x1="262.12" y1="86.349" x2="269.293" y2="31.469"/>
<line fill="none" stroke="#000000" stroke-miterlimit="10" x1="313.59" y1="56.977" x2="304.852" y2="102.905"/>
<line fill="none" stroke="#000000" stroke-miterlimit="10" x1="506.565" y1="210.383" x2="498.895" y2="232.322"/>
<line fill="none" stroke="#000000" stroke-miterlimit="10" x1="504.287" y1="208.184" x2="506.565" y2="210.383"/>
<line fill="none" stroke="#000000" stroke-miterlimit="10" x1="499.936" y1="164.287" x2="484.42" y2="208.657"/>
<line fill="none" stroke="#000000" stroke-miterlimit="10" x1="484.42" y1="208.657" x2="485.99" y2="218.719"/>
<line fill="none" stroke="#000000" stroke-miterlimit="10" x1="489.001" y1="238.019" x2="494.466" y2="273.034"/>
<line fill="none" stroke="#000000" stroke-miterlimit="10" x1="494.466" y1="273.034" x2="516.509" y2="289.128"/>
<line fill="none" stroke="#000000" stroke-miterlimit="10" x1="516.509" y1="289.128" x2="514.918" y2="301.994"/>
<line fill="none" stroke="#000000" stroke-miterlimit="10" x1="500.298" y1="310.413" x2="516.604" y2="414.901"/>
<line fill="none" stroke="#000000" stroke-miterlimit="10" x1="516.604" y1="414.901" x2="536.647" y2="426.444"/>
<line fill="none" stroke="#000000" stroke-miterlimit="10" x1="536.647" y1="426.444" x2="507.351" y2="168.557"/>
<line fill="none" stroke="#000000" stroke-miterlimit="10" x1="507.351" y1="168.557" x2="499.936" y2="164.287"/>
<line fill="none" stroke="#000000" stroke-miterlimit="10" x1="536.647" y1="426.444" x2="551.881" y2="417.671"/>
<line fill="none" stroke="#000000" stroke-miterlimit="10" x1="523.077" y1="164.118" x2="551.881" y2="417.671"/>
<line fill="none" stroke="#000000" stroke-miterlimit="10" x1="265.988" y1="386.574" x2="253.858" y2="377.719"/>
<line fill="none" stroke="#000000" stroke-miterlimit="10" x1="253.858" y1="377.719" x2="261.291" y2="356.468"/>
<line fill="none" stroke="#000000" stroke-miterlimit="10" x1="287.287" y1="282.12" x2="328.553" y2="164.116"/>
<line fill="none" stroke="#000000" stroke-miterlimit="10" x1="328.553" y1="164.116" x2="317.155" y2="153.118"/>
<line fill="none" stroke="#000000" stroke-miterlimit="10" x1="317.155" y1="153.118" x2="274.6" y2="274.814"/>
<line fill="none" stroke="#000000" stroke-miterlimit="10" x1="256.587" y1="326.323" x2="241.715" y2="368.852"/>
<line fill="none" stroke="#000000" stroke-miterlimit="10" x1="241.715" y1="368.852" x2="72.978" y2="245.652"/>
<line fill="none" stroke="#000000" stroke-miterlimit="10" x1="70.634" y1="257.97" x2="268.46" y2="402.407"/>
<line fill="none" stroke="#000000" stroke-miterlimit="10" x1="545.228" y1="39.342" x2="503.963" y2="157.346"/>
<line fill="none" stroke="#000000" stroke-miterlimit="10" x1="484.914" y1="211.821" x2="481.623" y2="221.234"/>
<line fill="none" stroke="#000000" stroke-miterlimit="10" x1="472.412" y1="247.571" x2="470.535" y2="252.942"/>
<line fill="none" stroke="#000000" stroke-miterlimit="10" x1="533.83" y1="28.342" x2="545.228" y2="39.342"/>
<line fill="none" stroke="#000000" stroke-miterlimit="10" x1="470.535" y1="252.942" x2="303.427" y2="349.174"/>
<line fill="none" stroke="#000000" stroke-miterlimit="10" x1="263.72" y1="372.039" x2="253.858" y2="377.719"/>
<line fill="none" stroke="#000000" stroke-miterlimit="10" x1="516.509" y1="289.128" x2="310.106" y2="407.987"/>
<line fill="none" stroke="#000000" stroke-miterlimit="10" x1="471.264" y1="250.857" x2="493.545" y2="267.125"/>
<line fill="none" stroke="#000000" stroke-miterlimit="10" x1="533.83" y1="28.342" x2="317.155" y2="153.118"/>
<line fill="none" stroke="#000000" stroke-miterlimit="10" x1="545.228" y1="39.342" x2="328.553" y2="164.116"/>
<line fill="none" stroke="#000000" stroke-miterlimit="10" x1="514.918" y1="301.994" x2="311.381" y2="419.203"/>
<line fill="none" stroke="#000000" stroke-miterlimit="10" x1="503.963" y1="157.346" x2="501.959" y2="158.5"/>
<line fill="none" stroke="#000000" stroke-miterlimit="10" x1="501.959" y1="158.5" x2="499.936" y2="164.287"/>
<line fill="none" stroke="#000000" stroke-miterlimit="10" x1="501.959" y1="158.5" x2="511.359" y2="163.913"/>
<line fill="none" stroke="#000000" stroke-miterlimit="10" x1="511.359" y1="163.913" x2="531.404" y2="152.371"/>
<line fill="none" stroke="#000000" stroke-miterlimit="10" x1="285.33" y1="10.666" x2="397.473" y2="75.245"/>
<line fill="none" stroke="#000000" stroke-miterlimit="10" x1="510.011" y1="140.052" x2="531.404" y2="152.371"/>
<line fill="none" stroke="#000000" stroke-miterlimit="10" x1="265.285" y1="22.208" x2="285.33" y2="10.666"/>
<line fill="none" stroke="#000000" stroke-miterlimit="10" x1="265.285" y1="22.208" x2="377.428" y2="86.788"/>
<line fill="none" stroke="#000000" stroke-miterlimit="10" x1="511.359" y1="170.866" x2="499.936" y2="164.287"/>
<line fill="none" stroke="#000000" stroke-miterlimit="10" x1="511.359" y1="163.913" x2="511.359" y2="170.866"/>
<line fill="none" stroke="#000000" stroke-miterlimit="10" x1="511.359" y1="170.866" x2="531.404" y2="159.323"/>
<line fill="none" stroke="#000000" stroke-miterlimit="10" x1="531.404" y1="152.371" x2="531.404" y2="159.323"/>
<line fill="none" stroke="#000000" stroke-miterlimit="10" x1="265.285" y1="29.161" x2="265.285" y2="22.208"/>
<line fill="none" stroke="#000000" stroke-miterlimit="10" x1="371.391" y1="90.264" x2="265.285" y2="29.161"/>
<line fill="none" stroke="#000000" stroke-miterlimit="10" x1="289.293" y1="280.967" x2="291.297" y2="279.812"/>
<line fill="none" stroke="#000000" stroke-miterlimit="10" x1="54.624" y1="143.521" x2="275.942" y2="270.972"/>
<line fill="none" stroke="#000000" stroke-miterlimit="10" x1="54.624" y1="143.521" x2="34.579" y2="155.064"/>
<line fill="none" stroke="#000000" stroke-miterlimit="10" x1="34.579" y1="155.064" x2="280.653" y2="296.769"/>
<line fill="none" stroke="#000000" stroke-miterlimit="10" x1="300.697" y1="285.226" x2="280.653" y2="296.769"/>
<line fill="none" stroke="#000000" stroke-miterlimit="10" x1="291.297" y1="279.812" x2="300.697" y2="285.226"/>
<line fill="none" stroke="#000000" stroke-miterlimit="10" x1="300.697" y1="285.226" x2="300.697" y2="292.179"/>
<line fill="none" stroke="#000000" stroke-miterlimit="10" x1="280.653" y1="296.769" x2="280.653" y2="303.721"/>
<line fill="none" stroke="#000000" stroke-miterlimit="10" x1="300.697" y1="292.179" x2="280.653" y2="303.721"/>
<line fill="none" stroke="#000000" stroke-miterlimit="10" x1="34.579" y1="162.016" x2="34.579" y2="155.064"/>
<line fill="none" stroke="#000000" stroke-miterlimit="10" x1="280.653" y1="303.721" x2="34.579" y2="162.016"/>
<path fill="none" stroke="#000000" stroke-miterlimit="10" d="M44.14,246.082c0-0.768-0.538-1.699-1.202-2.082
    c-0.665-0.382-1.203-0.07-1.203,0.698c0,0.768,0.538,1.7,1.202,2.083C43.601,247.163,44.139,246.851,44.14,246.082"/>
<path fill="none" stroke="#000000" stroke-miterlimit="10" d="M52.086,251.884c0-0.768-0.538-1.7-1.202-2.082
    c-0.664-0.382-1.203-0.069-1.203,0.698s0.538,1.7,1.202,2.082C51.548,252.965,52.086,252.652,52.086,251.884"/>
<line fill="none" stroke="#000000" stroke-miterlimit="10" x1="76.987" y1="243.343" x2="72.978" y2="245.652"/>
<line fill="none" stroke="#000000" stroke-miterlimit="10" x1="72.978" y1="245.652" x2="70.634" y2="257.97"/>
<line fill="none" stroke="#000000" stroke-miterlimit="10" x1="73.77" y1="260.258" x2="49.378" y2="388.47"/>
<line fill="none" stroke="#000000" stroke-miterlimit="10" x1="86.745" y1="192.056" x2="76.987" y2="243.343"/>
<line fill="none" stroke="#000000" stroke-miterlimit="10" x1="14.102" y1="385.7" x2="42.724" y2="166.707"/>
<line fill="none" stroke="#000000" stroke-miterlimit="10" x1="49.378" y1="388.47" x2="34.145" y2="397.241"/>
<line fill="none" stroke="#000000" stroke-miterlimit="10" x1="34.145" y1="397.241" x2="14.102" y2="385.7"/>
<line fill="none" stroke="#000000" stroke-miterlimit="10" x1="74.519" y1="185.016" x2="34.145" y2="397.241"/>
<path fill="none" stroke="#000000" stroke-miterlimit="10" d="M279.101,417.634c0-0.769-0.538-1.7-1.202-2.083
    c-0.664-0.382-1.203-0.069-1.203,0.698c0,0.769,0.538,1.7,1.202,2.083C278.562,418.714,279.101,418.401,279.101,417.634"/>
<path fill="none" stroke="#000000" stroke-miterlimit="10" d="M287.048,423.437c0-0.768-0.538-1.7-1.202-2.082
    s-1.203-0.069-1.203,0.698s0.537,1.7,1.202,2.082C286.509,424.517,287.047,424.204,287.048,423.437"/>
<line fill="none" stroke="#000000" stroke-miterlimit="10" x1="325.986" y1="547.758" x2="297.181" y2="294.204"/>
<line fill="none" stroke="#000000" stroke-miterlimit="10" x1="290.708" y1="544.987" x2="250.335" y2="286.263"/>
<line fill="none" stroke="#000000" stroke-miterlimit="10" x1="281.947" y1="302.976" x2="310.752" y2="556.528"/>
<line fill="none" stroke="#000000" stroke-miterlimit="10" x1="325.986" y1="547.758" x2="310.752" y2="556.528"/>
<line fill="none" stroke="#000000" stroke-miterlimit="10" x1="310.752" y1="556.528" x2="290.708" y2="544.987"/>
<line fill="none" stroke="#000000" stroke-miterlimit="10" x1="525.212" y1="33.307" x2="504.688" y2="13.503"/>
<line fill="none" stroke="#000000" stroke-miterlimit="10" x1="297.635" y1="132.737" x2="504.688" y2="13.503"/>
<line fill="none" stroke="#000000" stroke-miterlimit="10" x1="318.156" y1="152.541" x2="297.635" y2="132.737"/>
<line fill="none" stroke="#000000" stroke-miterlimit="10" x1="235.044" y1="311.724" x2="245.019" y2="283.2"/>
<line fill="none" stroke="#000000" stroke-miterlimit="10" x1="253.763" y1="258.198" x2="297.635" y2="132.737"/>
<line fill="none" stroke="#000000" stroke-miterlimit="10" x1="254.969" y1="330.949" x2="235.044" y2="311.724"/>
<line fill="none" stroke="#000000" stroke-miterlimit="10" x1="324.512" y1="117.26" x2="273.333" y2="79.893"/>
<line fill="none" stroke="#000000" stroke-miterlimit="10" x1="250.44" y1="343.9" x2="231.267" y2="354.941"/>
<line fill="none" stroke="#000000" stroke-miterlimit="10" x1="234.978" y1="324.919" x2="243.584" y2="319.964"/>
<line fill="none" stroke="#000000" stroke-miterlimit="10" x1="231.267" y1="354.941" x2="234.978" y2="324.919"/>
<line fill="none" stroke="#000000" stroke-miterlimit="10" x1="231.267" y1="354.941" x2="77.161" y2="242.423"/>
<line fill="none" stroke="#000000" stroke-miterlimit="10" x1="82.629" y1="213.685" x2="234.978" y2="324.919"/>
<line fill="none" stroke="#000000" stroke-miterlimit="10" x1="273.333" y1="79.893" x2="108.731" y2="174.68"/>
<line fill="none" stroke="#000000" stroke-miterlimit="10" x1="75.039" y1="261.185" x2="73.416" y2="262.121"/>
<line fill="none" stroke="#000000" stroke-miterlimit="10" x1="506.565" y1="210.383" x2="301.102" y2="328.703"/>
<line fill="none" stroke="#000000" stroke-miterlimit="10" x1="498.895" y1="232.322" x2="302.969" y2="345.147"/>
<line fill="none" stroke="#000000" stroke-miterlimit="10" x1="504.287" y1="208.184" x2="300.727" y2="325.405"/>
</svg>